<svg xmlns="http://www.w3.org/2000/svg" xmlns:xlink="http://www.w3.org/1999/xlink" width="1920" zoomAndPan="magnify" viewBox="0 0 1440 383.999986" height="512" preserveAspectRatio="xMidYMid meet" version="1.0"><defs><filter x="0%" y="0%" width="100%" height="100%" id="e9bb3379f2"><feColorMatrix values="0 0 0 0 1 0 0 0 0 1 0 0 0 0 1 0 0 0 1 0" color-interpolation-filters="sRGB"/></filter><mask id="965dcbac0e"><g filter="url(#e9bb3379f2)"><rect x="-144" width="1728" fill="#000000" y="-38.399999" height="460.799983" fill-opacity="0.21"/></g></mask><clipPath id="8a8abfc971"><path d="M 0 0.398438 L 720 0.398438 L 720 383.664062 L 0 383.664062 Z M 0 0.398438 " clip-rule="nonzero"/></clipPath><clipPath id="5b66c8de80"><rect x="0" width="720" y="0" height="384"/></clipPath><mask id="dc8e4cfeb5"><g filter="url(#e9bb3379f2)"><rect x="-144" width="1728" fill="#000000" y="-38.399999" height="460.799983" fill-opacity="0.21"/></g></mask><clipPath id="5b2138e9f6"><path d="M 0 0.335938 L 720 0.335938 L 720 383.601562 L 0 383.601562 Z M 0 0.335938 " clip-rule="nonzero"/></clipPath><clipPath id="5fb1a470b7"><rect x="0" width="720" y="0" height="384"/></clipPath></defs><rect x="-144" width="1728" fill="#ffffff" y="-38.399999" height="460.799983" fill-opacity="1"/><g mask="url(#965dcbac0e)"><g transform="matrix(1, 0, 0, 1, -0, 0)"><g clip-path="url(#5b66c8de80)"><g clip-path="url(#8a8abfc971)"><path fill="#47a93c" d="M 718.675781 382.238281 C 718.582031 382.238281 718.507812 382.3125 718.507812 382.40625 C 718.507812 382.5 718.582031 382.574219 718.675781 382.574219 C 718.769531 382.574219 718.84375 382.5 718.84375 382.40625 C 718.84375 382.3125 718.769531 382.238281 718.675781 382.238281 Z M 674.367188 382.167969 C 674.238281 382.167969 674.132812 382.273438 674.132812 382.40625 C 674.132812 382.539062 674.238281 382.644531 674.367188 382.644531 C 674.5 382.644531 674.605469 382.539062 674.605469 382.40625 C 674.605469 382.273438 674.5 382.167969 674.367188 382.167969 Z M 630.0625 382.101562 C 629.894531 382.101562 629.757812 382.238281 629.757812 382.40625 C 629.757812 382.574219 629.894531 382.710938 630.0625 382.710938 C 630.230469 382.710938 630.367188 382.574219 630.367188 382.40625 C 630.367188 382.238281 630.230469 382.101562 630.0625 382.101562 Z M 585.757812 382.03125 C 585.550781 382.03125 585.382812 382.199219 585.382812 382.40625 C 585.382812 382.613281 585.550781 382.78125 585.757812 382.78125 C 585.960938 382.78125 586.125 382.613281 586.125 382.40625 C 586.125 382.199219 585.960938 382.03125 585.757812 382.03125 Z M 541.445312 381.960938 C 541.207031 381.960938 541.007812 382.164062 541.007812 382.40625 C 541.007812 382.648438 541.207031 382.851562 541.445312 382.851562 C 541.695312 382.851562 541.886719 382.648438 541.886719 382.40625 C 541.886719 382.164062 541.695312 381.960938 541.445312 381.960938 Z M 497.136719 381.898438 C 496.855469 381.898438 496.632812 382.125 496.632812 382.40625 C 496.632812 382.6875 496.855469 382.917969 497.136719 382.917969 C 497.417969 382.917969 497.648438 382.6875 497.648438 382.40625 C 497.648438 382.125 497.417969 381.898438 497.136719 381.898438 Z M 452.832031 381.832031 C 452.511719 381.832031 452.257812 382.085938 452.257812 382.40625 C 452.257812 382.726562 452.511719 382.988281 452.832031 382.988281 C 453.148438 382.988281 453.414062 382.726562 453.414062 382.40625 C 453.414062 382.085938 453.148438 381.832031 452.832031 381.832031 Z M 408.523438 381.761719 C 408.167969 381.761719 407.882812 382.050781 407.882812 382.40625 C 407.882812 382.761719 408.167969 383.050781 408.523438 383.050781 C 408.882812 383.050781 409.167969 382.761719 409.167969 382.40625 C 409.167969 382.050781 408.882812 381.761719 408.523438 381.761719 Z M 364.21875 381.695312 C 363.824219 381.695312 363.5 382.011719 363.5 382.40625 C 363.5 382.800781 363.824219 383.117188 364.21875 383.117188 C 364.613281 383.117188 364.929688 382.800781 364.929688 382.40625 C 364.929688 382.011719 364.613281 381.695312 364.21875 381.695312 Z M 319.90625 381.625 C 319.476562 381.625 319.125 381.976562 319.125 382.40625 C 319.125 382.835938 319.476562 383.1875 319.90625 383.1875 C 320.34375 383.1875 320.6875 382.835938 320.6875 382.40625 C 320.6875 381.976562 320.34375 381.625 319.90625 381.625 Z M 275.601562 381.554688 C 275.132812 381.554688 274.75 381.9375 274.75 382.40625 C 274.75 382.875 275.132812 383.257812 275.601562 383.257812 C 276.070312 383.257812 276.449219 382.875 276.449219 382.40625 C 276.449219 381.9375 276.070312 381.554688 275.601562 381.554688 Z M 231.292969 381.488281 C 230.789062 381.488281 230.375 381.898438 230.375 382.40625 C 230.375 382.914062 230.789062 383.324219 231.292969 383.324219 C 231.800781 383.324219 232.210938 382.914062 232.210938 382.40625 C 232.210938 381.898438 231.800781 381.488281 231.292969 381.488281 Z M 186.988281 381.425781 C 186.445312 381.425781 186 381.863281 186 382.40625 C 186 382.949219 186.445312 383.394531 186.988281 383.394531 C 187.53125 383.394531 187.96875 382.949219 187.96875 382.40625 C 187.96875 381.863281 187.53125 381.425781 186.988281 381.425781 Z M 142.675781 381.355469 C 142.09375 381.355469 141.625 381.824219 141.625 382.40625 C 141.625 382.988281 142.09375 383.460938 142.675781 383.460938 C 143.257812 383.460938 143.730469 382.988281 143.730469 382.40625 C 143.730469 381.824219 143.257812 381.355469 142.675781 381.355469 Z M 98.367188 381.289062 C 97.75 381.289062 97.25 381.789062 97.25 382.40625 C 97.25 383.023438 97.75 383.523438 98.367188 383.523438 C 98.988281 383.523438 99.492188 383.023438 99.492188 382.40625 C 99.492188 381.789062 98.988281 381.289062 98.367188 381.289062 Z M 54.0625 381.21875 C 53.40625 381.21875 52.875 381.75 52.875 382.40625 C 52.875 383.0625 53.40625 383.59375 54.0625 383.59375 C 54.71875 383.59375 55.25 383.0625 55.25 382.40625 C 55.25 381.75 54.71875 381.21875 54.0625 381.21875 Z M 9.757812 381.148438 C 9.0625 381.148438 8.5 381.710938 8.5 382.40625 C 8.5 383.101562 9.0625 383.664062 9.757812 383.664062 C 10.449219 383.664062 11.011719 383.101562 11.011719 382.40625 C 11.011719 381.710938 10.449219 381.148438 9.757812 381.148438 Z M 718.675781 341.230469 C 718.53125 341.230469 718.417969 341.351562 718.417969 341.492188 C 718.417969 341.636719 718.53125 341.757812 718.675781 341.757812 C 718.820312 341.757812 718.9375 341.636719 718.9375 341.492188 C 718.9375 341.351562 718.820312 341.230469 718.675781 341.230469 Z M 674.367188 341.132812 C 674.167969 341.132812 674.007812 341.292969 674.007812 341.492188 C 674.007812 341.699219 674.167969 341.863281 674.367188 341.863281 C 674.570312 341.863281 674.738281 341.699219 674.738281 341.492188 C 674.738281 341.292969 674.570312 341.132812 674.367188 341.132812 Z M 630.0625 341.023438 C 629.800781 341.023438 629.59375 341.238281 629.59375 341.492188 C 629.59375 341.757812 629.800781 341.960938 630.0625 341.960938 C 630.320312 341.960938 630.53125 341.757812 630.53125 341.492188 C 630.53125 341.238281 630.320312 341.023438 630.0625 341.023438 Z M 585.757812 340.917969 C 585.4375 340.917969 585.179688 341.179688 585.179688 341.492188 C 585.179688 341.8125 585.4375 342.070312 585.757812 342.070312 C 586.074219 342.070312 586.332031 341.8125 586.332031 341.492188 C 586.332031 341.179688 586.074219 340.917969 585.757812 340.917969 Z M 541.445312 340.8125 C 541.070312 340.8125 540.769531 341.117188 540.769531 341.492188 C 540.769531 341.867188 541.070312 342.175781 541.445312 342.175781 C 541.820312 342.175781 542.125 341.867188 542.125 341.492188 C 542.125 341.117188 541.820312 340.8125 541.445312 340.8125 Z M 497.136719 340.710938 C 496.707031 340.710938 496.355469 341.0625 496.355469 341.492188 C 496.355469 341.925781 496.707031 342.28125 497.136719 342.28125 C 497.570312 342.28125 497.925781 341.925781 497.925781 341.492188 C 497.925781 341.0625 497.570312 340.710938 497.136719 340.710938 Z M 452.832031 340.605469 C 452.34375 340.605469 451.945312 341.007812 451.945312 341.492188 C 451.945312 341.988281 452.34375 342.382812 452.832031 342.382812 C 453.320312 342.382812 453.71875 341.988281 453.71875 341.492188 C 453.71875 341.007812 453.320312 340.605469 452.832031 340.605469 Z M 408.523438 340.5 C 407.976562 340.5 407.53125 340.949219 407.53125 341.492188 C 407.53125 342.042969 407.976562 342.488281 408.523438 342.488281 C 409.074219 342.488281 409.511719 342.042969 409.511719 341.492188 C 409.511719 340.949219 409.074219 340.5 408.523438 340.5 Z M 364.21875 340.398438 C 363.613281 340.398438 363.117188 340.886719 363.117188 341.492188 C 363.117188 342.101562 363.613281 342.59375 364.21875 342.59375 C 364.824219 342.59375 365.3125 342.101562 365.3125 341.492188 C 365.3125 340.886719 364.824219 340.398438 364.21875 340.398438 Z M 319.90625 340.292969 C 319.242188 340.292969 318.707031 340.832031 318.707031 341.492188 C 318.707031 342.15625 319.242188 342.695312 319.90625 342.695312 C 320.570312 342.695312 321.105469 342.15625 321.105469 341.492188 C 321.105469 340.832031 320.570312 340.292969 319.90625 340.292969 Z M 275.601562 340.1875 C 274.882812 340.1875 274.292969 340.773438 274.292969 341.492188 C 274.292969 342.21875 274.882812 342.800781 275.601562 342.800781 C 276.320312 342.800781 276.90625 342.21875 276.90625 341.492188 C 276.90625 340.773438 276.320312 340.1875 275.601562 340.1875 Z M 231.292969 340.082031 C 230.511719 340.082031 229.882812 340.71875 229.882812 341.492188 C 229.882812 342.273438 230.511719 342.90625 231.292969 342.90625 C 232.074219 342.90625 232.699219 342.273438 232.699219 341.492188 C 232.699219 340.71875 232.074219 340.082031 231.292969 340.082031 Z M 186.988281 339.980469 C 186.148438 339.980469 185.46875 340.65625 185.46875 341.492188 C 185.46875 342.332031 186.148438 343.011719 186.988281 343.011719 C 187.824219 343.011719 188.5 342.332031 188.5 341.492188 C 188.5 340.65625 187.824219 339.980469 186.988281 339.980469 Z M 142.675781 339.875 C 141.78125 339.875 141.054688 340.601562 141.054688 341.492188 C 141.054688 342.386719 141.78125 343.113281 142.675781 343.113281 C 143.570312 343.113281 144.300781 342.386719 144.300781 341.492188 C 144.300781 340.601562 143.570312 339.875 142.675781 339.875 Z M 98.367188 339.769531 C 97.417969 339.769531 96.648438 340.542969 96.648438 341.492188 C 96.648438 342.449219 97.417969 343.21875 98.367188 343.21875 C 99.324219 343.21875 100.09375 342.449219 100.09375 341.492188 C 100.09375 340.542969 99.324219 339.769531 98.367188 339.769531 Z M 54.0625 339.667969 C 53.050781 339.667969 52.230469 340.488281 52.230469 341.492188 C 52.230469 342.507812 53.050781 343.324219 54.0625 343.324219 C 55.074219 343.324219 55.894531 342.507812 55.894531 341.492188 C 55.894531 340.488281 55.074219 339.667969 54.0625 339.667969 Z M 9.757812 339.5625 C 8.6875 339.5625 7.820312 340.425781 7.820312 341.492188 C 7.820312 342.5625 8.6875 343.429688 9.757812 343.429688 C 10.824219 343.429688 11.6875 342.5625 11.6875 341.492188 C 11.6875 340.425781 10.824219 339.5625 9.757812 339.5625 Z M 718.675781 299.957031 C 718.46875 299.957031 718.304688 300.125 718.304688 300.332031 C 718.304688 300.539062 718.46875 300.707031 718.675781 300.707031 C 718.882812 300.707031 719.050781 300.539062 719.050781 300.332031 C 719.050781 300.125 718.882812 299.957031 718.675781 299.957031 Z M 674.367188 299.804688 C 674.082031 299.804688 673.84375 300.042969 673.84375 300.332031 C 673.84375 300.617188 674.082031 300.851562 674.367188 300.851562 C 674.65625 300.851562 674.894531 300.617188 674.894531 300.332031 C 674.894531 300.042969 674.65625 299.804688 674.367188 299.804688 Z M 630.0625 299.65625 C 629.6875 299.65625 629.386719 299.957031 629.386719 300.332031 C 629.386719 300.699219 629.6875 301 630.0625 301 C 630.429688 301 630.730469 300.699219 630.730469 300.332031 C 630.730469 299.957031 630.429688 299.65625 630.0625 299.65625 Z M 585.757812 299.511719 C 585.300781 299.511719 584.929688 299.875 584.929688 300.332031 C 584.929688 300.78125 585.300781 301.148438 585.757812 301.148438 C 586.207031 301.148438 586.574219 300.78125 586.574219 300.332031 C 586.574219 299.875 586.207031 299.511719 585.757812 299.511719 Z M 541.445312 299.355469 C 540.914062 299.355469 540.476562 299.792969 540.476562 300.332031 C 540.476562 300.867188 540.914062 301.300781 541.445312 301.300781 C 541.980469 301.300781 542.417969 300.867188 542.417969 300.332031 C 542.417969 299.792969 541.980469 299.355469 541.445312 299.355469 Z M 497.136719 299.210938 C 496.519531 299.210938 496.019531 299.710938 496.019531 300.332031 C 496.019531 300.949219 496.519531 301.449219 497.136719 301.449219 C 497.757812 301.449219 498.257812 300.949219 498.257812 300.332031 C 498.257812 299.710938 497.757812 299.210938 497.136719 299.210938 Z M 452.832031 299.0625 C 452.132812 299.0625 451.5625 299.632812 451.5625 300.332031 C 451.5625 301.03125 452.132812 301.601562 452.832031 301.601562 C 453.53125 301.601562 454.101562 301.03125 454.101562 300.332031 C 454.101562 299.632812 453.53125 299.0625 452.832031 299.0625 Z M 408.523438 298.914062 C 407.738281 298.914062 407.105469 299.550781 407.105469 300.332031 C 407.105469 301.113281 407.738281 301.75 408.523438 301.75 C 409.304688 301.75 409.945312 301.113281 409.945312 300.332031 C 409.945312 299.550781 409.304688 298.914062 408.523438 298.914062 Z M 364.21875 298.761719 C 363.351562 298.761719 362.648438 299.460938 362.648438 300.332031 C 362.648438 301.195312 363.351562 301.898438 364.21875 301.898438 C 365.082031 301.898438 365.78125 301.195312 365.78125 300.332031 C 365.78125 299.460938 365.082031 298.761719 364.21875 298.761719 Z M 319.90625 298.613281 C 318.960938 298.613281 318.195312 299.382812 318.195312 300.332031 C 318.195312 301.273438 318.960938 302.050781 319.90625 302.050781 C 320.855469 302.050781 321.625 301.273438 321.625 300.332031 C 321.625 299.382812 320.855469 298.613281 319.90625 298.613281 Z M 275.601562 298.460938 C 274.570312 298.460938 273.738281 299.300781 273.738281 300.332031 C 273.738281 301.363281 274.570312 302.199219 275.601562 302.199219 C 276.632812 302.199219 277.46875 301.363281 277.46875 300.332031 C 277.46875 299.300781 276.632812 298.460938 275.601562 298.460938 Z M 231.292969 298.3125 C 230.179688 298.3125 229.273438 299.21875 229.273438 300.332031 C 229.273438 301.445312 230.179688 302.34375 231.292969 302.34375 C 232.40625 302.34375 233.304688 301.445312 233.304688 300.332031 C 233.304688 299.21875 232.40625 298.3125 231.292969 298.3125 Z M 186.988281 298.164062 C 185.789062 298.164062 184.820312 299.136719 184.820312 300.332031 C 184.820312 301.523438 185.789062 302.492188 186.988281 302.492188 C 188.179688 302.492188 189.148438 301.523438 189.148438 300.332031 C 189.148438 299.136719 188.179688 298.164062 186.988281 298.164062 Z M 142.675781 298.019531 C 141.398438 298.019531 140.363281 299.050781 140.363281 300.332031 C 140.363281 301.605469 141.398438 302.644531 142.675781 302.644531 C 143.957031 302.644531 144.992188 301.605469 144.992188 300.332031 C 144.992188 299.050781 143.957031 298.019531 142.675781 298.019531 Z M 98.367188 297.867188 C 97.011719 297.867188 95.90625 298.96875 95.90625 300.332031 C 95.90625 301.6875 97.011719 302.792969 98.367188 302.792969 C 99.730469 302.792969 100.832031 301.6875 100.832031 300.332031 C 100.832031 298.96875 99.730469 297.867188 98.367188 297.867188 Z M 54.0625 297.71875 C 52.617188 297.71875 51.449219 298.886719 51.449219 300.332031 C 51.449219 301.773438 52.617188 302.945312 54.0625 302.945312 C 55.507812 302.945312 56.675781 301.773438 56.675781 300.332031 C 56.675781 298.886719 55.507812 297.71875 54.0625 297.71875 Z M 9.757812 297.570312 C 8.230469 297.570312 6.992188 298.804688 6.992188 300.332031 C 6.992188 301.855469 8.230469 303.09375 9.757812 303.09375 C 11.28125 303.09375 12.519531 301.855469 12.519531 300.332031 C 12.519531 298.804688 11.28125 297.570312 9.757812 297.570312 Z M 718.675781 258.511719 C 718.398438 258.511719 718.179688 258.738281 718.179688 259.011719 C 718.179688 259.289062 718.398438 259.507812 718.675781 259.507812 C 718.949219 259.507812 719.175781 259.289062 719.175781 259.011719 C 719.175781 258.738281 718.949219 258.511719 718.675781 258.511719 Z M 674.367188 258.3125 C 673.980469 258.3125 673.675781 258.625 673.675781 259.011719 C 673.675781 259.398438 673.980469 259.707031 674.367188 259.707031 C 674.757812 259.707031 675.0625 259.398438 675.0625 259.011719 C 675.0625 258.625 674.757812 258.3125 674.367188 258.3125 Z M 630.0625 258.117188 C 629.570312 258.117188 629.167969 258.519531 629.167969 259.011719 C 629.167969 259.507812 629.570312 259.90625 630.0625 259.90625 C 630.554688 259.90625 630.957031 259.507812 630.957031 259.011719 C 630.957031 258.519531 630.554688 258.117188 630.0625 258.117188 Z M 585.757812 257.917969 C 585.148438 257.917969 584.65625 258.40625 584.65625 259.011719 C 584.65625 259.617188 585.148438 260.105469 585.757812 260.105469 C 586.355469 260.105469 586.851562 259.617188 586.851562 259.011719 C 586.851562 258.40625 586.355469 257.917969 585.757812 257.917969 Z M 541.445312 257.71875 C 540.730469 257.71875 540.148438 258.300781 540.148438 259.011719 C 540.148438 259.726562 540.730469 260.304688 541.445312 260.304688 C 542.164062 260.304688 542.738281 259.726562 542.738281 259.011719 C 542.738281 258.300781 542.164062 257.71875 541.445312 257.71875 Z M 497.136719 257.519531 C 496.3125 257.519531 495.644531 258.1875 495.644531 259.011719 C 495.644531 259.835938 496.3125 260.507812 497.136719 260.507812 C 497.960938 260.507812 498.632812 259.835938 498.632812 259.011719 C 498.632812 258.1875 497.960938 257.519531 497.136719 257.519531 Z M 452.832031 257.320312 C 451.898438 257.320312 451.136719 258.074219 451.136719 259.011719 C 451.136719 259.945312 451.898438 260.707031 452.832031 260.707031 C 453.769531 260.707031 454.519531 259.945312 454.519531 259.011719 C 454.519531 258.074219 453.769531 257.320312 452.832031 257.320312 Z M 408.523438 257.117188 C 407.480469 257.117188 406.632812 257.96875 406.632812 259.011719 C 406.632812 260.054688 407.480469 260.898438 408.523438 260.898438 C 409.570312 260.898438 410.414062 260.054688 410.414062 259.011719 C 410.414062 257.96875 409.570312 257.117188 408.523438 257.117188 Z M 364.21875 256.917969 C 363.0625 256.917969 362.125 257.855469 362.125 259.011719 C 362.125 260.167969 363.0625 261.101562 364.21875 261.101562 C 365.367188 261.101562 366.304688 260.167969 366.304688 259.011719 C 366.304688 257.855469 365.367188 256.917969 364.21875 256.917969 Z M 319.90625 256.726562 C 318.644531 256.726562 317.617188 257.75 317.617188 259.011719 C 317.617188 260.273438 318.644531 261.300781 319.90625 261.300781 C 321.167969 261.300781 322.199219 260.273438 322.199219 259.011719 C 322.199219 257.75 321.167969 256.726562 319.90625 256.726562 Z M 275.601562 256.523438 C 274.226562 256.523438 273.113281 257.636719 273.113281 259.011719 C 273.113281 260.386719 274.226562 261.5 275.601562 261.5 C 276.976562 261.5 278.085938 260.386719 278.085938 259.011719 C 278.085938 257.636719 276.976562 256.523438 275.601562 256.523438 Z M 231.292969 256.324219 C 229.8125 256.324219 228.605469 257.523438 228.605469 259.011719 C 228.605469 260.492188 229.8125 261.699219 231.292969 261.699219 C 232.773438 261.699219 233.980469 260.492188 233.980469 259.011719 C 233.980469 257.523438 232.773438 256.324219 231.292969 256.324219 Z M 186.988281 256.125 C 185.386719 256.125 184.101562 257.417969 184.101562 259.011719 C 184.101562 260.605469 185.386719 261.898438 186.988281 261.898438 C 188.582031 261.898438 189.875 260.605469 189.875 259.011719 C 189.875 257.417969 188.582031 256.125 186.988281 256.125 Z M 142.675781 255.925781 C 140.976562 255.925781 139.59375 257.304688 139.59375 259.011719 C 139.59375 260.710938 140.976562 262.09375 142.675781 262.09375 C 144.382812 262.09375 145.761719 260.710938 145.761719 259.011719 C 145.761719 257.304688 144.382812 255.925781 142.675781 255.925781 Z M 98.367188 255.726562 C 96.554688 255.726562 95.085938 257.199219 95.085938 259.011719 C 95.085938 260.824219 96.554688 262.292969 98.367188 262.292969 C 100.179688 262.292969 101.65625 260.824219 101.65625 259.011719 C 101.65625 257.199219 100.179688 255.726562 98.367188 255.726562 Z M 54.0625 255.53125 C 52.136719 255.53125 50.582031 257.085938 50.582031 259.011719 C 50.582031 260.9375 52.136719 262.492188 54.0625 262.492188 C 55.988281 262.492188 57.542969 260.9375 57.542969 259.011719 C 57.542969 257.085938 55.988281 255.53125 54.0625 255.53125 Z M 9.757812 255.332031 C 7.71875 255.332031 6.074219 256.976562 6.074219 259.011719 C 6.074219 261.042969 7.71875 262.695312 9.757812 262.695312 C 11.789062 262.695312 13.4375 261.042969 13.4375 259.011719 C 13.4375 256.976562 11.789062 255.332031 9.757812 255.332031 Z M 718.675781 217.554688 C 718.355469 217.554688 718.09375 217.820312 718.09375 218.144531 C 718.09375 218.46875 718.355469 218.730469 718.675781 218.730469 C 719 218.730469 719.261719 218.46875 719.261719 218.144531 C 719.261719 217.820312 719 217.554688 718.675781 217.554688 Z M 674.367188 217.324219 C 673.917969 217.324219 673.550781 217.695312 673.550781 218.144531 C 673.550781 218.601562 673.917969 218.960938 674.367188 218.960938 C 674.824219 218.960938 675.1875 218.601562 675.1875 218.144531 C 675.1875 217.695312 674.824219 217.324219 674.367188 217.324219 Z M 630.0625 217.085938 C 629.480469 217.085938 629.007812 217.5625 629.007812 218.144531 C 629.007812 218.726562 629.480469 219.199219 630.0625 219.199219 C 630.644531 219.199219 631.113281 218.726562 631.113281 218.144531 C 631.113281 217.5625 630.644531 217.085938 630.0625 217.085938 Z M 585.757812 216.855469 C 585.042969 216.855469 584.460938 217.429688 584.460938 218.144531 C 584.460938 218.855469 585.042969 219.429688 585.757812 219.429688 C 586.460938 219.429688 587.042969 218.855469 587.042969 218.144531 C 587.042969 217.429688 586.460938 216.855469 585.757812 216.855469 Z M 541.445312 216.625 C 540.605469 216.625 539.925781 217.304688 539.925781 218.144531 C 539.925781 218.988281 540.605469 219.667969 541.445312 219.667969 C 542.289062 219.667969 542.96875 218.988281 542.96875 218.144531 C 542.96875 217.304688 542.289062 216.625 541.445312 216.625 Z M 497.136719 216.386719 C 496.167969 216.386719 495.382812 217.175781 495.382812 218.144531 C 495.382812 219.113281 496.167969 219.898438 497.136719 219.898438 C 498.105469 219.898438 498.894531 219.113281 498.894531 218.144531 C 498.894531 217.175781 498.105469 216.386719 497.136719 216.386719 Z M 452.832031 216.15625 C 451.730469 216.15625 450.835938 217.042969 450.835938 218.144531 C 450.835938 219.242188 451.730469 220.136719 452.832031 220.136719 C 453.929688 220.136719 454.824219 219.242188 454.824219 218.144531 C 454.824219 217.042969 453.929688 216.15625 452.832031 216.15625 Z M 408.523438 215.917969 C 407.292969 215.917969 406.300781 216.914062 406.300781 218.144531 C 406.300781 219.375 407.292969 220.367188 408.523438 220.367188 C 409.75 220.367188 410.75 219.375 410.75 218.144531 C 410.75 216.914062 409.75 215.917969 408.523438 215.917969 Z M 364.21875 215.6875 C 362.855469 215.6875 361.757812 216.789062 361.757812 218.144531 C 361.757812 219.5 362.855469 220.605469 364.21875 220.605469 C 365.574219 220.605469 366.675781 219.5 366.675781 218.144531 C 366.675781 216.789062 365.574219 215.6875 364.21875 215.6875 Z M 319.90625 215.449219 C 318.425781 215.449219 317.210938 216.65625 317.210938 218.144531 C 317.210938 219.632812 318.425781 220.835938 319.90625 220.835938 C 321.394531 220.835938 322.601562 219.632812 322.601562 218.144531 C 322.601562 216.65625 321.394531 215.449219 319.90625 215.449219 Z M 275.601562 215.21875 C 273.980469 215.21875 272.675781 216.523438 272.675781 218.144531 C 272.675781 219.761719 273.980469 221.074219 275.601562 221.074219 C 277.21875 221.074219 278.523438 219.761719 278.523438 218.144531 C 278.523438 216.523438 277.21875 215.21875 275.601562 215.21875 Z M 231.292969 214.980469 C 229.550781 214.980469 228.132812 216.398438 228.132812 218.144531 C 228.132812 219.886719 229.550781 221.304688 231.292969 221.304688 C 233.039062 221.304688 234.457031 219.886719 234.457031 218.144531 C 234.457031 216.398438 233.039062 214.980469 231.292969 214.980469 Z M 186.988281 214.75 C 185.105469 214.75 183.585938 216.269531 183.585938 218.144531 C 183.585938 220.019531 185.105469 221.539062 186.988281 221.539062 C 188.863281 221.539062 190.382812 220.019531 190.382812 218.144531 C 190.382812 216.269531 188.863281 214.75 186.988281 214.75 Z M 142.675781 214.511719 C 140.675781 214.511719 139.050781 216.136719 139.050781 218.144531 C 139.050781 220.148438 140.675781 221.773438 142.675781 221.773438 C 144.679688 221.773438 146.304688 220.148438 146.304688 218.144531 C 146.304688 216.136719 144.679688 214.511719 142.675781 214.511719 Z M 98.367188 214.28125 C 96.238281 214.28125 94.507812 216.011719 94.507812 218.144531 C 94.507812 220.28125 96.238281 222.007812 98.367188 222.007812 C 100.507812 222.007812 102.238281 220.28125 102.238281 218.144531 C 102.238281 216.011719 100.507812 214.28125 98.367188 214.28125 Z M 54.0625 214.042969 C 51.800781 214.042969 49.960938 215.882812 49.960938 218.144531 C 49.960938 220.40625 51.800781 222.242188 54.0625 222.242188 C 56.324219 222.242188 58.164062 220.40625 58.164062 218.144531 C 58.164062 215.882812 56.324219 214.042969 54.0625 214.042969 Z M 9.757812 213.8125 C 7.363281 213.8125 5.425781 215.75 5.425781 218.144531 C 5.425781 220.539062 7.363281 222.476562 9.757812 222.476562 C 12.148438 222.476562 14.085938 220.539062 14.085938 218.144531 C 14.085938 215.75 12.148438 213.8125 9.757812 213.8125 Z M 718.636719 176.394531 C 718.257812 176.394531 717.949219 176.707031 717.949219 177.085938 C 717.949219 177.46875 718.257812 177.773438 718.636719 177.773438 C 719.019531 177.773438 719.324219 177.46875 719.324219 177.085938 C 719.324219 176.707031 719.019531 176.394531 718.636719 176.394531 Z M 674.332031 176.117188 C 673.800781 176.117188 673.367188 176.550781 673.367188 177.085938 C 673.367188 177.617188 673.800781 178.050781 674.332031 178.050781 C 674.863281 178.050781 675.300781 177.617188 675.300781 177.085938 C 675.300781 176.550781 674.863281 176.117188 674.332031 176.117188 Z M 630.03125 175.84375 C 629.34375 175.84375 628.789062 176.398438 628.789062 177.085938 C 628.789062 177.769531 629.34375 178.324219 630.03125 178.324219 C 630.710938 178.324219 631.269531 177.769531 631.269531 177.085938 C 631.269531 176.398438 630.710938 175.84375 630.03125 175.84375 Z M 585.71875 175.570312 C 584.886719 175.570312 584.207031 176.25 584.207031 177.085938 C 584.207031 177.917969 584.886719 178.601562 585.71875 178.601562 C 586.5625 178.601562 587.238281 177.917969 587.238281 177.085938 C 587.238281 176.25 586.5625 175.570312 585.71875 175.570312 Z M 541.417969 175.292969 C 540.429688 175.292969 539.625 176.101562 539.625 177.085938 C 539.625 178.074219 540.429688 178.875 541.417969 178.875 C 542.40625 178.875 543.207031 178.074219 543.207031 177.085938 C 543.207031 176.101562 542.40625 175.292969 541.417969 175.292969 Z M 497.113281 175.019531 C 495.96875 175.019531 495.042969 175.945312 495.042969 177.085938 C 495.042969 178.226562 495.96875 179.148438 497.113281 179.148438 C 498.25 179.148438 499.179688 178.226562 499.179688 177.085938 C 499.179688 175.945312 498.25 175.019531 497.113281 175.019531 Z M 452.804688 174.742188 C 451.511719 174.742188 450.460938 175.792969 450.460938 177.085938 C 450.460938 178.382812 451.511719 179.425781 452.804688 179.425781 C 454.101562 179.425781 455.148438 178.382812 455.148438 177.085938 C 455.148438 175.792969 454.101562 174.742188 452.804688 174.742188 Z M 408.5 174.46875 C 407.054688 174.46875 405.886719 175.636719 405.886719 177.085938 C 405.886719 178.53125 407.054688 179.699219 408.5 179.699219 C 409.949219 179.699219 411.117188 178.53125 411.117188 177.085938 C 411.117188 175.636719 409.949219 174.46875 408.5 174.46875 Z M 364.195312 174.195312 C 362.601562 174.195312 361.300781 175.488281 361.300781 177.085938 C 361.300781 178.679688 362.601562 179.976562 364.195312 179.976562 C 365.792969 179.976562 367.085938 178.679688 367.085938 177.085938 C 367.085938 175.488281 365.792969 174.195312 364.195312 174.195312 Z M 319.894531 173.917969 C 318.144531 173.917969 316.726562 175.335938 316.726562 177.085938 C 316.726562 178.835938 318.144531 180.257812 319.894531 180.257812 C 321.636719 180.257812 323.054688 178.835938 323.054688 177.085938 C 323.054688 175.335938 321.636719 173.917969 319.894531 173.917969 Z M 275.585938 173.644531 C 273.6875 173.644531 272.144531 175.179688 272.144531 177.085938 C 272.144531 178.988281 273.6875 180.53125 275.585938 180.53125 C 277.488281 180.53125 279.03125 178.988281 279.03125 177.085938 C 279.03125 175.179688 277.488281 173.644531 275.585938 173.644531 Z M 231.28125 173.367188 C 229.226562 173.367188 227.5625 175.03125 227.5625 177.085938 C 227.5625 179.136719 229.226562 180.804688 231.28125 180.804688 C 233.335938 180.804688 235 179.136719 235 177.085938 C 235 175.03125 233.335938 173.367188 231.28125 173.367188 Z M 186.976562 173.09375 C 184.769531 173.09375 182.980469 174.882812 182.980469 177.085938 C 182.980469 179.292969 184.769531 181.082031 186.976562 181.082031 C 189.179688 181.082031 190.96875 179.292969 190.96875 177.085938 C 190.96875 174.882812 189.179688 173.09375 186.976562 173.09375 Z M 142.667969 172.820312 C 140.3125 172.820312 138.398438 174.726562 138.398438 177.085938 C 138.398438 179.445312 140.3125 181.355469 142.667969 181.355469 C 145.03125 181.355469 146.945312 179.445312 146.945312 177.085938 C 146.945312 174.726562 145.03125 172.820312 142.667969 172.820312 Z M 98.363281 172.539062 C 95.855469 172.539062 93.820312 174.574219 93.820312 177.085938 C 93.820312 179.59375 95.855469 181.632812 98.363281 181.632812 C 100.875 181.632812 102.914062 179.59375 102.914062 177.085938 C 102.914062 174.574219 100.875 172.539062 98.363281 172.539062 Z M 54.0625 172.261719 C 51.394531 172.261719 49.238281 174.425781 49.238281 177.085938 C 49.238281 179.75 51.394531 181.90625 54.0625 181.90625 C 56.726562 181.90625 58.882812 179.75 58.882812 177.085938 C 58.882812 174.425781 56.726562 172.261719 54.0625 172.261719 Z M 9.757812 171.988281 C 6.9375 171.988281 4.65625 174.273438 4.65625 177.085938 C 4.65625 179.898438 6.9375 182.179688 9.757812 182.179688 C 12.570312 182.179688 14.851562 179.898438 14.851562 177.085938 C 14.851562 174.273438 12.570312 171.988281 9.757812 171.988281 Z M 718.675781 134.992188 C 718.230469 134.992188 717.867188 135.355469 717.867188 135.800781 C 717.867188 136.25 718.230469 136.613281 718.675781 136.613281 C 719.125 136.613281 719.488281 136.25 719.488281 135.800781 C 719.488281 135.355469 719.125 134.992188 718.675781 134.992188 Z M 674.367188 134.667969 C 673.742188 134.667969 673.230469 135.175781 673.230469 135.800781 C 673.230469 136.429688 673.742188 136.9375 674.367188 136.9375 C 674.992188 136.9375 675.5 136.429688 675.5 135.800781 C 675.5 135.175781 674.992188 134.667969 674.367188 134.667969 Z M 630.0625 134.34375 C 629.257812 134.34375 628.605469 134.992188 628.605469 135.800781 C 628.605469 136.605469 629.257812 137.261719 630.0625 137.261719 C 630.867188 137.261719 631.519531 136.605469 631.519531 135.800781 C 631.519531 134.992188 630.867188 134.34375 630.0625 134.34375 Z M 585.757812 134.019531 C 584.769531 134.019531 583.96875 134.820312 583.96875 135.804688 C 583.96875 136.789062 584.769531 137.585938 585.757812 137.585938 C 586.738281 137.585938 587.539062 136.789062 587.539062 135.804688 C 587.539062 134.820312 586.738281 134.019531 585.757812 134.019531 Z M 541.445312 133.695312 C 540.28125 133.695312 539.335938 134.636719 539.335938 135.800781 C 539.335938 136.96875 540.28125 137.90625 541.445312 137.90625 C 542.613281 137.90625 543.554688 136.96875 543.554688 135.800781 C 543.554688 134.636719 542.613281 133.695312 541.445312 133.695312 Z M 497.136719 133.375 C 495.792969 133.375 494.707031 134.457031 494.707031 135.804688 C 494.707031 137.144531 495.792969 138.230469 497.136719 138.230469 C 498.480469 138.230469 499.570312 137.144531 499.570312 135.804688 C 499.570312 134.457031 498.480469 133.375 497.136719 133.375 Z M 452.832031 133.050781 C 451.304688 133.050781 450.074219 134.28125 450.074219 135.804688 C 450.074219 137.324219 451.304688 138.554688 452.832031 138.554688 C 454.355469 138.554688 455.585938 137.324219 455.585938 135.804688 C 455.585938 134.28125 454.355469 133.050781 452.832031 133.050781 Z M 408.523438 132.726562 C 406.824219 132.726562 405.445312 134.101562 405.445312 135.804688 C 405.445312 137.5 406.824219 138.882812 408.523438 138.882812 C 410.226562 138.882812 411.605469 137.5 411.605469 135.804688 C 411.605469 134.101562 410.226562 132.726562 408.523438 132.726562 Z M 364.21875 132.398438 C 362.335938 132.398438 360.8125 133.925781 360.8125 135.804688 C 360.8125 137.679688 362.335938 139.207031 364.21875 139.207031 C 366.09375 139.207031 367.617188 137.679688 367.617188 135.804688 C 367.617188 133.925781 366.09375 132.398438 364.21875 132.398438 Z M 319.90625 132.074219 C 317.851562 132.074219 316.179688 133.742188 316.179688 135.804688 C 316.179688 137.863281 317.851562 139.53125 319.90625 139.53125 C 321.96875 139.53125 323.632812 137.863281 323.632812 135.804688 C 323.632812 133.742188 321.96875 132.074219 319.90625 132.074219 Z M 275.601562 131.75 C 273.363281 131.75 271.550781 133.5625 271.550781 135.804688 C 271.550781 138.039062 273.363281 139.851562 275.601562 139.851562 C 277.835938 139.851562 279.648438 138.039062 279.648438 135.804688 C 279.648438 133.5625 277.835938 131.75 275.601562 131.75 Z M 231.292969 131.425781 C 228.875 131.425781 226.917969 133.386719 226.917969 135.804688 C 226.917969 138.21875 228.875 140.175781 231.292969 140.175781 C 233.707031 140.175781 235.667969 138.21875 235.667969 135.804688 C 235.667969 133.386719 233.707031 131.425781 231.292969 131.425781 Z M 186.988281 131.105469 C 184.386719 131.105469 182.289062 133.207031 182.289062 135.804688 C 182.289062 138.398438 184.386719 140.5 186.988281 140.5 C 189.582031 140.5 191.6875 138.398438 191.6875 135.804688 C 191.6875 133.207031 189.582031 131.105469 186.988281 131.105469 Z M 142.675781 130.773438 C 139.90625 130.773438 137.648438 133.023438 137.648438 135.804688 C 137.648438 138.574219 139.90625 140.824219 142.675781 140.824219 C 145.449219 140.824219 147.699219 138.574219 147.699219 135.804688 C 147.699219 133.023438 145.449219 130.773438 142.675781 130.773438 Z M 98.367188 130.457031 C 95.417969 130.457031 93.023438 132.851562 93.023438 135.804688 C 93.023438 138.757812 95.417969 141.148438 98.367188 141.148438 C 101.324219 141.148438 103.71875 138.757812 103.71875 135.804688 C 103.71875 132.851562 101.324219 130.457031 98.367188 130.457031 Z M 54.0625 130.132812 C 50.929688 130.132812 48.386719 132.667969 48.386719 135.804688 C 48.386719 138.9375 50.929688 141.476562 54.0625 141.476562 C 57.195312 141.476562 59.738281 138.9375 59.738281 135.804688 C 59.738281 132.667969 57.195312 130.132812 54.0625 130.132812 Z M 9.757812 129.804688 C 6.445312 129.804688 3.761719 132.492188 3.761719 135.804688 C 3.761719 139.113281 6.445312 141.800781 9.757812 141.800781 C 13.070312 141.800781 15.75 139.113281 15.75 135.804688 C 15.75 132.492188 13.070312 129.804688 9.757812 129.804688 Z M 718.675781 93.300781 C 718.148438 93.300781 717.726562 93.726562 717.726562 94.257812 C 717.726562 94.78125 718.148438 95.207031 718.675781 95.207031 C 719.207031 95.207031 719.632812 94.78125 719.632812 94.257812 C 719.632812 93.726562 719.207031 93.300781 718.675781 93.300781 Z M 674.367188 92.917969 C 673.632812 92.917969 673.03125 93.519531 673.03125 94.257812 C 673.03125 94.992188 673.632812 95.585938 674.367188 95.585938 C 675.105469 95.585938 675.699219 94.992188 675.699219 94.257812 C 675.699219 93.519531 675.105469 92.917969 674.367188 92.917969 Z M 630.0625 92.539062 C 629.113281 92.539062 628.34375 93.304688 628.34375 94.257812 C 628.34375 95.207031 629.113281 95.96875 630.0625 95.96875 C 631.011719 95.96875 631.773438 95.207031 631.773438 94.257812 C 631.773438 93.304688 631.011719 92.539062 630.0625 92.539062 Z M 585.757812 92.15625 C 584.59375 92.15625 583.65625 93.09375 583.65625 94.257812 C 583.65625 95.414062 584.59375 96.351562 585.757812 96.351562 C 586.914062 96.351562 587.851562 95.414062 587.851562 94.257812 C 587.851562 93.09375 586.914062 92.15625 585.757812 92.15625 Z M 541.445312 91.773438 C 540.074219 91.773438 538.96875 92.886719 538.96875 94.257812 C 538.96875 95.625 540.074219 96.730469 541.445312 96.730469 C 542.8125 96.730469 543.925781 95.625 543.925781 94.257812 C 543.925781 92.886719 542.8125 91.773438 541.445312 91.773438 Z M 497.136719 91.394531 C 495.5625 91.394531 494.28125 92.675781 494.28125 94.257812 C 494.28125 95.832031 495.5625 97.113281 497.136719 97.113281 C 498.71875 97.113281 500 95.832031 500 94.257812 C 500 92.675781 498.71875 91.394531 497.136719 91.394531 Z M 452.832031 91.011719 C 451.039062 91.011719 449.585938 92.460938 449.585938 94.257812 C 449.585938 96.042969 451.039062 97.492188 452.832031 97.492188 C 454.617188 97.492188 456.074219 96.042969 456.074219 94.257812 C 456.074219 92.460938 454.617188 91.011719 452.832031 91.011719 Z M 408.523438 90.632812 C 406.523438 90.632812 404.898438 92.257812 404.898438 94.257812 C 404.898438 96.257812 406.523438 97.875 408.523438 97.875 C 410.523438 97.875 412.144531 96.257812 412.144531 94.257812 C 412.144531 92.257812 410.523438 90.632812 408.523438 90.632812 Z M 364.21875 90.25 C 362.007812 90.25 360.210938 92.042969 360.210938 94.257812 C 360.210938 96.460938 362.007812 98.257812 364.21875 98.257812 C 366.425781 98.257812 368.21875 96.460938 368.21875 94.257812 C 368.21875 92.042969 366.425781 90.25 364.21875 90.25 Z M 319.90625 89.867188 C 317.488281 89.867188 315.523438 91.832031 315.523438 94.257812 C 315.523438 96.675781 317.488281 98.636719 319.90625 98.636719 C 322.332031 98.636719 324.292969 96.675781 324.292969 94.257812 C 324.292969 91.832031 322.332031 89.867188 319.90625 89.867188 Z M 275.601562 89.488281 C 272.96875 89.488281 270.832031 91.625 270.832031 94.257812 C 270.832031 96.886719 272.96875 99.019531 275.601562 99.019531 C 278.230469 99.019531 280.367188 96.886719 280.367188 94.257812 C 280.367188 91.625 278.230469 89.488281 275.601562 89.488281 Z M 231.292969 89.105469 C 228.449219 89.105469 226.144531 91.414062 226.144531 94.257812 C 226.144531 97.101562 228.449219 99.398438 231.292969 99.398438 C 234.136719 99.398438 236.4375 97.101562 236.4375 94.257812 C 236.4375 91.414062 234.136719 89.105469 231.292969 89.105469 Z M 186.988281 88.726562 C 183.929688 88.726562 181.457031 91.199219 181.457031 94.257812 C 181.457031 97.304688 183.929688 99.78125 186.988281 99.78125 C 190.039062 99.78125 192.511719 97.304688 192.511719 94.257812 C 192.511719 91.199219 190.039062 88.726562 186.988281 88.726562 Z M 142.675781 88.34375 C 139.414062 88.34375 136.769531 90.988281 136.769531 94.257812 C 136.769531 97.519531 139.414062 100.164062 142.675781 100.164062 C 145.945312 100.164062 148.585938 97.519531 148.585938 94.257812 C 148.585938 90.988281 145.945312 88.34375 142.675781 88.34375 Z M 98.367188 87.960938 C 94.894531 87.960938 92.074219 90.78125 92.074219 94.257812 C 92.074219 97.730469 94.894531 100.550781 98.367188 100.550781 C 101.84375 100.550781 104.664062 97.730469 104.664062 94.257812 C 104.664062 90.78125 101.84375 87.960938 98.367188 87.960938 Z M 54.0625 87.582031 C 50.375 87.582031 47.386719 90.570312 47.386719 94.257812 C 47.386719 97.945312 50.375 100.925781 54.0625 100.925781 C 57.75 100.925781 60.738281 97.945312 60.738281 94.257812 C 60.738281 90.570312 57.75 87.582031 54.0625 87.582031 Z M 9.757812 87.199219 C 5.855469 87.199219 2.699219 90.355469 2.699219 94.257812 C 2.699219 98.148438 5.855469 101.3125 9.757812 101.3125 C 13.648438 101.3125 16.8125 98.148438 16.8125 94.257812 C 16.8125 90.355469 13.648438 87.199219 9.757812 87.199219 Z M 718.679688 51.273438 C 718.0625 51.273438 717.5625 51.773438 717.5625 52.394531 C 717.5625 53.019531 718.0625 53.519531 718.679688 53.519531 C 719.300781 53.519531 719.800781 53.019531 719.800781 52.394531 C 719.800781 51.773438 719.300781 51.273438 718.679688 51.273438 Z M 674.375 50.824219 C 673.507812 50.824219 672.804688 51.523438 672.804688 52.394531 C 672.804688 53.261719 673.507812 53.960938 674.375 53.960938 C 675.238281 53.960938 675.945312 53.261719 675.945312 52.394531 C 675.945312 51.523438 675.238281 50.824219 674.375 50.824219 Z M 630.070312 50.375 C 628.949219 50.375 628.042969 51.28125 628.042969 52.394531 C 628.042969 53.511719 628.949219 54.414062 630.070312 54.414062 C 631.179688 54.414062 632.085938 53.511719 632.085938 52.394531 C 632.085938 51.28125 631.179688 50.375 630.070312 50.375 Z M 585.761719 49.925781 C 584.394531 49.925781 583.292969 51.03125 583.292969 52.394531 C 583.292969 53.757812 584.394531 54.863281 585.761719 54.863281 C 587.117188 54.863281 588.226562 53.757812 588.226562 52.394531 C 588.226562 51.03125 587.117188 49.925781 585.761719 49.925781 Z M 541.449219 49.480469 C 539.835938 49.480469 538.539062 50.789062 538.539062 52.394531 C 538.539062 54.007812 539.835938 55.3125 541.449219 55.3125 C 543.0625 55.3125 544.367188 54.007812 544.367188 52.394531 C 544.367188 50.789062 543.0625 49.480469 541.449219 49.480469 Z M 497.144531 49.03125 C 495.289062 49.03125 493.78125 50.539062 493.78125 52.394531 C 493.78125 54.25 495.289062 55.761719 497.144531 55.761719 C 499 55.761719 500.507812 54.25 500.507812 52.394531 C 500.507812 50.539062 499 49.03125 497.144531 49.03125 Z M 452.835938 48.582031 C 450.730469 48.582031 449.023438 50.289062 449.023438 52.394531 C 449.023438 54.5 450.730469 56.207031 452.835938 56.207031 C 454.945312 56.207031 456.648438 54.5 456.648438 52.394531 C 456.648438 50.289062 454.945312 48.582031 452.835938 48.582031 Z M 408.53125 48.132812 C 406.175781 48.132812 404.269531 50.042969 404.269531 52.394531 C 404.269531 54.75 406.175781 56.65625 408.53125 56.65625 C 410.882812 56.65625 412.789062 54.75 412.789062 52.394531 C 412.789062 50.042969 410.882812 48.132812 408.53125 48.132812 Z M 364.226562 47.6875 C 361.617188 47.6875 359.511719 49.792969 359.511719 52.394531 C 359.511719 54.992188 361.617188 57.105469 364.226562 57.105469 C 366.824219 57.105469 368.929688 54.992188 368.929688 52.394531 C 368.929688 49.792969 366.824219 47.6875 364.226562 47.6875 Z M 319.914062 47.238281 C 317.0625 47.238281 314.757812 49.550781 314.757812 52.394531 C 314.757812 55.242188 317.0625 57.554688 319.914062 57.554688 C 322.761719 57.554688 325.074219 55.242188 325.074219 52.394531 C 325.074219 49.550781 322.761719 47.238281 319.914062 47.238281 Z M 275.605469 46.789062 C 272.511719 46.789062 270 49.300781 270 52.394531 C 270 55.492188 272.511719 58.007812 275.605469 58.007812 C 278.707031 58.007812 281.210938 55.492188 281.210938 52.394531 C 281.210938 49.300781 278.707031 46.789062 275.605469 46.789062 Z M 231.300781 46.335938 C 227.957031 46.335938 225.242188 49.050781 225.242188 52.394531 C 225.242188 55.738281 227.957031 58.449219 231.300781 58.449219 C 234.644531 58.449219 237.355469 55.738281 237.355469 52.394531 C 237.355469 49.050781 234.644531 46.335938 231.300781 46.335938 Z M 186.992188 45.886719 C 183.398438 45.886719 180.488281 48.804688 180.488281 52.394531 C 180.488281 55.988281 183.398438 58.898438 186.992188 58.898438 C 190.582031 58.898438 193.5 55.988281 193.5 52.394531 C 193.5 48.804688 190.582031 45.886719 186.992188 45.886719 Z M 142.6875 45.445312 C 138.84375 45.445312 135.730469 48.554688 135.730469 52.394531 C 135.730469 56.238281 138.84375 59.351562 142.6875 59.351562 C 146.523438 59.351562 149.636719 56.238281 149.636719 52.394531 C 149.636719 48.554688 146.523438 45.445312 142.6875 45.445312 Z M 98.375 44.992188 C 94.289062 44.992188 90.976562 48.304688 90.976562 52.394531 C 90.976562 56.480469 94.289062 59.792969 98.375 59.792969 C 102.460938 59.792969 105.78125 56.480469 105.78125 52.394531 C 105.78125 48.304688 102.460938 44.992188 98.375 44.992188 Z M 54.070312 44.542969 C 49.738281 44.542969 46.21875 48.054688 46.21875 52.394531 C 46.21875 56.730469 49.738281 60.242188 54.070312 60.242188 C 58.40625 60.242188 61.917969 56.730469 61.917969 52.394531 C 61.917969 48.054688 58.40625 44.542969 54.070312 44.542969 Z M 9.761719 44.09375 C 5.179688 44.09375 1.460938 47.8125 1.460938 52.394531 C 1.460938 56.976562 5.179688 60.695312 9.761719 60.695312 C 14.351562 60.695312 18.0625 56.976562 18.0625 52.394531 C 18.0625 47.8125 14.351562 44.09375 9.761719 44.09375 Z M 718.679688 8.851562 C 717.957031 8.851562 717.363281 9.445312 717.363281 10.167969 C 717.363281 10.898438 717.957031 11.488281 718.679688 11.488281 C 719.414062 11.488281 720 10.898438 720 10.167969 C 720 9.445312 719.414062 8.851562 718.679688 8.851562 Z M 674.375 8.324219 C 673.355469 8.324219 672.523438 9.148438 672.523438 10.167969 C 672.523438 11.1875 673.355469 12.019531 674.375 12.019531 C 675.394531 12.019531 676.21875 11.1875 676.21875 10.167969 C 676.21875 9.148438 675.394531 8.324219 674.375 8.324219 Z M 630.070312 7.792969 C 628.757812 7.792969 627.695312 8.855469 627.695312 10.167969 C 627.695312 11.480469 628.757812 12.542969 630.070312 12.542969 C 631.375 12.542969 632.4375 11.480469 632.4375 10.167969 C 632.4375 8.855469 631.375 7.792969 630.070312 7.792969 Z M 585.761719 7.269531 C 584.15625 7.269531 582.855469 8.570312 582.855469 10.167969 C 582.855469 11.773438 584.15625 13.074219 585.761719 13.074219 C 587.363281 13.074219 588.664062 11.773438 588.664062 10.167969 C 588.664062 8.570312 587.363281 7.269531 585.761719 7.269531 Z M 541.449219 6.742188 C 539.554688 6.742188 538.019531 8.273438 538.019531 10.167969 C 538.019531 12.0625 539.554688 13.601562 541.449219 13.601562 C 543.34375 13.601562 544.882812 12.0625 544.882812 10.167969 C 544.882812 8.273438 543.34375 6.742188 541.449219 6.742188 Z M 497.144531 6.210938 C 494.957031 6.210938 493.1875 7.980469 493.1875 10.167969 C 493.1875 12.355469 494.957031 14.132812 497.144531 14.132812 C 499.332031 14.132812 501.101562 12.355469 501.101562 10.167969 C 501.101562 7.980469 499.332031 6.210938 497.144531 6.210938 Z M 452.835938 5.679688 C 450.363281 5.679688 448.351562 7.695312 448.351562 10.167969 C 448.351562 12.648438 450.363281 14.65625 452.835938 14.65625 C 455.3125 14.65625 457.320312 12.648438 457.320312 10.167969 C 457.320312 7.695312 455.3125 5.679688 452.835938 5.679688 Z M 408.53125 5.15625 C 405.761719 5.15625 403.511719 7.398438 403.511719 10.167969 C 403.511719 12.9375 405.761719 15.179688 408.53125 15.179688 C 411.300781 15.179688 413.542969 12.9375 413.542969 10.167969 C 413.542969 7.398438 411.300781 5.15625 408.53125 5.15625 Z M 364.226562 4.632812 C 361.164062 4.632812 358.679688 7.113281 358.679688 10.167969 C 358.679688 13.230469 361.164062 15.710938 364.226562 15.710938 C 367.28125 15.710938 369.761719 13.230469 369.761719 10.167969 C 369.761719 7.113281 367.28125 4.632812 364.226562 4.632812 Z M 319.914062 4.101562 C 316.5625 4.101562 313.84375 6.820312 313.84375 10.167969 C 313.84375 13.519531 316.5625 16.238281 319.914062 16.238281 C 323.269531 16.238281 325.980469 13.519531 325.980469 10.167969 C 325.980469 6.820312 323.269531 4.101562 319.914062 4.101562 Z M 275.605469 3.574219 C 271.960938 3.574219 269.011719 6.523438 269.011719 10.167969 C 269.011719 13.8125 271.960938 16.769531 275.605469 16.769531 C 279.25 16.769531 282.207031 13.8125 282.207031 10.167969 C 282.207031 6.523438 279.25 3.574219 275.605469 3.574219 Z M 231.300781 3.042969 C 227.363281 3.042969 224.175781 6.238281 224.175781 10.167969 C 224.175781 14.105469 227.363281 17.292969 231.300781 17.292969 C 235.230469 17.292969 238.425781 14.105469 238.425781 10.167969 C 238.425781 6.238281 235.230469 3.042969 231.300781 3.042969 Z M 186.992188 2.519531 C 182.769531 2.519531 179.34375 5.945312 179.34375 10.167969 C 179.34375 14.394531 182.769531 17.824219 186.992188 17.824219 C 191.21875 17.824219 194.644531 14.394531 194.644531 10.167969 C 194.644531 5.945312 191.21875 2.519531 186.992188 2.519531 Z M 142.6875 1.988281 C 138.167969 1.988281 134.507812 5.648438 134.507812 10.167969 C 134.507812 14.6875 138.167969 18.351562 142.6875 18.351562 C 147.207031 18.351562 150.863281 14.6875 150.863281 10.167969 C 150.863281 5.648438 147.207031 1.988281 142.6875 1.988281 Z M 98.375 1.460938 C 93.570312 1.460938 89.667969 5.363281 89.667969 10.167969 C 89.667969 14.980469 93.570312 18.882812 98.375 18.882812 C 103.1875 18.882812 107.085938 14.980469 107.085938 10.167969 C 107.085938 5.363281 103.1875 1.460938 98.375 1.460938 Z M 54.070312 0.9375 C 48.96875 0.9375 44.835938 5.070312 44.835938 10.167969 C 44.835938 15.273438 48.96875 19.40625 54.070312 19.40625 C 59.167969 19.40625 63.304688 15.273438 63.304688 10.167969 C 63.304688 5.070312 59.167969 0.9375 54.070312 0.9375 Z M 19.523438 10.167969 C 19.523438 15.5625 15.15625 19.9375 9.761719 19.9375 C 4.367188 19.9375 0 15.5625 0 10.167969 C 0 4.773438 4.367188 0.40625 9.761719 0.40625 C 15.15625 0.40625 19.523438 4.773438 19.523438 10.167969 " fill-opacity="1" fill-rule="nonzero"/></g></g></g></g><g mask="url(#dc8e4cfeb5)"><g transform="matrix(1, 0, 0, 1, 720, 0)"><g clip-path="url(#5fb1a470b7)"><g clip-path="url(#5b2138e9f6)"><path fill="#47a93c" d="M 1.324219 1.761719 C 1.417969 1.761719 1.492188 1.6875 1.492188 1.59375 C 1.492188 1.5 1.417969 1.425781 1.324219 1.425781 C 1.230469 1.425781 1.15625 1.5 1.15625 1.59375 C 1.15625 1.6875 1.230469 1.761719 1.324219 1.761719 Z M 45.632812 1.832031 C 45.761719 1.832031 45.867188 1.726562 45.867188 1.59375 C 45.867188 1.460938 45.761719 1.355469 45.632812 1.355469 C 45.5 1.355469 45.394531 1.460938 45.394531 1.59375 C 45.394531 1.726562 45.5 1.832031 45.632812 1.832031 Z M 89.9375 1.898438 C 90.105469 1.898438 90.242188 1.761719 90.242188 1.59375 C 90.242188 1.425781 90.105469 1.289062 89.9375 1.289062 C 89.769531 1.289062 89.632812 1.425781 89.632812 1.59375 C 89.632812 1.761719 89.769531 1.898438 89.9375 1.898438 Z M 134.242188 1.96875 C 134.449219 1.96875 134.617188 1.800781 134.617188 1.59375 C 134.617188 1.386719 134.449219 1.21875 134.242188 1.21875 C 134.039062 1.21875 133.875 1.386719 133.875 1.59375 C 133.875 1.800781 134.039062 1.96875 134.242188 1.96875 Z M 178.554688 2.039062 C 178.792969 2.039062 178.992188 1.835938 178.992188 1.59375 C 178.992188 1.351562 178.792969 1.148438 178.554688 1.148438 C 178.304688 1.148438 178.113281 1.351562 178.113281 1.59375 C 178.113281 1.835938 178.304688 2.039062 178.554688 2.039062 Z M 222.863281 2.101562 C 223.144531 2.101562 223.367188 1.875 223.367188 1.59375 C 223.367188 1.3125 223.144531 1.082031 222.863281 1.082031 C 222.582031 1.082031 222.351562 1.3125 222.351562 1.59375 C 222.351562 1.875 222.582031 2.101562 222.863281 2.101562 Z M 267.167969 2.167969 C 267.488281 2.167969 267.742188 1.914062 267.742188 1.59375 C 267.742188 1.273438 267.488281 1.011719 267.167969 1.011719 C 266.851562 1.011719 266.585938 1.273438 266.585938 1.59375 C 266.585938 1.914062 266.851562 2.167969 267.167969 2.167969 Z M 311.476562 2.238281 C 311.832031 2.238281 312.117188 1.949219 312.117188 1.59375 C 312.117188 1.238281 311.832031 0.949219 311.476562 0.949219 C 311.117188 0.949219 310.832031 1.238281 310.832031 1.59375 C 310.832031 1.949219 311.117188 2.238281 311.476562 2.238281 Z M 355.78125 2.304688 C 356.175781 2.304688 356.5 1.988281 356.5 1.59375 C 356.5 1.199219 356.175781 0.882812 355.78125 0.882812 C 355.386719 0.882812 355.070312 1.199219 355.070312 1.59375 C 355.070312 1.988281 355.386719 2.304688 355.78125 2.304688 Z M 400.09375 2.375 C 400.523438 2.375 400.875 2.023438 400.875 1.59375 C 400.875 1.164062 400.523438 0.8125 400.09375 0.8125 C 399.65625 0.8125 399.3125 1.164062 399.3125 1.59375 C 399.3125 2.023438 399.65625 2.375 400.09375 2.375 Z M 444.398438 2.445312 C 444.867188 2.445312 445.25 2.0625 445.25 1.59375 C 445.25 1.125 444.867188 0.742188 444.398438 0.742188 C 443.929688 0.742188 443.550781 1.125 443.550781 1.59375 C 443.550781 2.0625 443.929688 2.445312 444.398438 2.445312 Z M 488.707031 2.511719 C 489.210938 2.511719 489.625 2.101562 489.625 1.59375 C 489.625 1.085938 489.210938 0.675781 488.707031 0.675781 C 488.199219 0.675781 487.789062 1.085938 487.789062 1.59375 C 487.789062 2.101562 488.199219 2.511719 488.707031 2.511719 Z M 533.011719 2.574219 C 533.554688 2.574219 534 2.136719 534 1.59375 C 534 1.050781 533.554688 0.605469 533.011719 0.605469 C 532.46875 0.605469 532.03125 1.050781 532.03125 1.59375 C 532.03125 2.136719 532.46875 2.574219 533.011719 2.574219 Z M 577.324219 2.644531 C 577.90625 2.644531 578.375 2.175781 578.375 1.59375 C 578.375 1.011719 577.90625 0.539062 577.324219 0.539062 C 576.742188 0.539062 576.269531 1.011719 576.269531 1.59375 C 576.269531 2.175781 576.742188 2.644531 577.324219 2.644531 Z M 621.632812 2.710938 C 622.25 2.710938 622.75 2.210938 622.75 1.59375 C 622.75 0.976562 622.25 0.476562 621.632812 0.476562 C 621.011719 0.476562 620.507812 0.976562 620.507812 1.59375 C 620.507812 2.210938 621.011719 2.710938 621.632812 2.710938 Z M 665.9375 2.78125 C 666.59375 2.78125 667.125 2.25 667.125 1.59375 C 667.125 0.9375 666.59375 0.40625 665.9375 0.40625 C 665.28125 0.40625 664.75 0.9375 664.75 1.59375 C 664.75 2.25 665.28125 2.78125 665.9375 2.78125 Z M 710.242188 2.851562 C 710.9375 2.851562 711.5 2.289062 711.5 1.59375 C 711.5 0.898438 710.9375 0.335938 710.242188 0.335938 C 709.550781 0.335938 708.988281 0.898438 708.988281 1.59375 C 708.988281 2.289062 709.550781 2.851562 710.242188 2.851562 Z M 1.324219 42.769531 C 1.46875 42.769531 1.582031 42.648438 1.582031 42.507812 C 1.582031 42.363281 1.46875 42.242188 1.324219 42.242188 C 1.179688 42.242188 1.0625 42.363281 1.0625 42.507812 C 1.0625 42.648438 1.179688 42.769531 1.324219 42.769531 Z M 45.632812 42.867188 C 45.832031 42.867188 45.992188 42.707031 45.992188 42.507812 C 45.992188 42.300781 45.832031 42.136719 45.632812 42.136719 C 45.429688 42.136719 45.261719 42.300781 45.261719 42.507812 C 45.261719 42.707031 45.429688 42.867188 45.632812 42.867188 Z M 89.9375 42.976562 C 90.199219 42.976562 90.40625 42.761719 90.40625 42.507812 C 90.40625 42.242188 90.199219 42.039062 89.9375 42.039062 C 89.679688 42.039062 89.46875 42.242188 89.46875 42.507812 C 89.46875 42.761719 89.679688 42.976562 89.9375 42.976562 Z M 134.242188 43.082031 C 134.5625 43.082031 134.820312 42.820312 134.820312 42.507812 C 134.820312 42.1875 134.5625 41.929688 134.242188 41.929688 C 133.925781 41.929688 133.667969 42.1875 133.667969 42.507812 C 133.667969 42.820312 133.925781 43.082031 134.242188 43.082031 Z M 178.554688 43.1875 C 178.929688 43.1875 179.230469 42.882812 179.230469 42.507812 C 179.230469 42.132812 178.929688 41.824219 178.554688 41.824219 C 178.179688 41.824219 177.875 42.132812 177.875 42.507812 C 177.875 42.882812 178.179688 43.1875 178.554688 43.1875 Z M 222.863281 43.289062 C 223.292969 43.289062 223.644531 42.9375 223.644531 42.507812 C 223.644531 42.074219 223.292969 41.71875 222.863281 41.71875 C 222.429688 41.71875 222.074219 42.074219 222.074219 42.507812 C 222.074219 42.9375 222.429688 43.289062 222.863281 43.289062 Z M 267.167969 43.394531 C 267.65625 43.394531 268.054688 42.992188 268.054688 42.507812 C 268.054688 42.011719 267.65625 41.617188 267.167969 41.617188 C 266.679688 41.617188 266.28125 42.011719 266.28125 42.507812 C 266.28125 42.992188 266.679688 43.394531 267.167969 43.394531 Z M 311.476562 43.5 C 312.023438 43.5 312.46875 43.050781 312.46875 42.507812 C 312.46875 41.957031 312.023438 41.511719 311.476562 41.511719 C 310.925781 41.511719 310.488281 41.957031 310.488281 42.507812 C 310.488281 43.050781 310.925781 43.5 311.476562 43.5 Z M 355.78125 43.601562 C 356.386719 43.601562 356.882812 43.113281 356.882812 42.507812 C 356.882812 41.898438 356.386719 41.40625 355.78125 41.40625 C 355.175781 41.40625 354.6875 41.898438 354.6875 42.507812 C 354.6875 43.113281 355.175781 43.601562 355.78125 43.601562 Z M 400.09375 43.707031 C 400.757812 43.707031 401.292969 43.167969 401.292969 42.507812 C 401.292969 41.84375 400.757812 41.304688 400.09375 41.304688 C 399.429688 41.304688 398.894531 41.84375 398.894531 42.507812 C 398.894531 43.167969 399.429688 43.707031 400.09375 43.707031 Z M 444.398438 43.8125 C 445.117188 43.8125 445.707031 43.226562 445.707031 42.507812 C 445.707031 41.78125 445.117188 41.199219 444.398438 41.199219 C 443.679688 41.199219 443.09375 41.78125 443.09375 42.507812 C 443.09375 43.226562 443.679688 43.8125 444.398438 43.8125 Z M 488.707031 43.917969 C 489.488281 43.917969 490.117188 43.28125 490.117188 42.507812 C 490.117188 41.726562 489.488281 41.09375 488.707031 41.09375 C 487.925781 41.09375 487.300781 41.726562 487.300781 42.507812 C 487.300781 43.28125 487.925781 43.917969 488.707031 43.917969 Z M 533.011719 44.019531 C 533.851562 44.019531 534.53125 43.34375 534.53125 42.507812 C 534.53125 41.667969 533.851562 40.988281 533.011719 40.988281 C 532.175781 40.988281 531.5 41.667969 531.5 42.507812 C 531.5 43.34375 532.175781 44.019531 533.011719 44.019531 Z M 577.324219 44.125 C 578.21875 44.125 578.945312 43.398438 578.945312 42.507812 C 578.945312 41.613281 578.21875 40.886719 577.324219 40.886719 C 576.429688 40.886719 575.699219 41.613281 575.699219 42.507812 C 575.699219 43.398438 576.429688 44.125 577.324219 44.125 Z M 621.632812 44.230469 C 622.582031 44.230469 623.351562 43.457031 623.351562 42.507812 C 623.351562 41.550781 622.582031 40.78125 621.632812 40.78125 C 620.675781 40.78125 619.90625 41.550781 619.90625 42.507812 C 619.90625 43.457031 620.675781 44.230469 621.632812 44.230469 Z M 665.9375 44.332031 C 666.949219 44.332031 667.769531 43.511719 667.769531 42.507812 C 667.769531 41.492188 666.949219 40.675781 665.9375 40.675781 C 664.925781 40.675781 664.105469 41.492188 664.105469 42.507812 C 664.105469 43.511719 664.925781 44.332031 665.9375 44.332031 Z M 710.242188 44.4375 C 711.3125 44.4375 712.179688 43.574219 712.179688 42.507812 C 712.179688 41.4375 711.3125 40.570312 710.242188 40.570312 C 709.175781 40.570312 708.3125 41.4375 708.3125 42.507812 C 708.3125 43.574219 709.175781 44.4375 710.242188 44.4375 Z M 1.324219 84.042969 C 1.53125 84.042969 1.695312 83.875 1.695312 83.667969 C 1.695312 83.460938 1.53125 83.292969 1.324219 83.292969 C 1.117188 83.292969 0.949219 83.460938 0.949219 83.667969 C 0.949219 83.875 1.117188 84.042969 1.324219 84.042969 Z M 45.632812 84.195312 C 45.917969 84.195312 46.15625 83.957031 46.15625 83.667969 C 46.15625 83.382812 45.917969 83.148438 45.632812 83.148438 C 45.34375 83.148438 45.105469 83.382812 45.105469 83.667969 C 45.105469 83.957031 45.34375 84.195312 45.632812 84.195312 Z M 89.9375 84.34375 C 90.3125 84.34375 90.613281 84.042969 90.613281 83.667969 C 90.613281 83.300781 90.3125 83 89.9375 83 C 89.570312 83 89.269531 83.300781 89.269531 83.667969 C 89.269531 84.042969 89.570312 84.34375 89.9375 84.34375 Z M 134.242188 84.488281 C 134.699219 84.488281 135.070312 84.125 135.070312 83.667969 C 135.070312 83.21875 134.699219 82.851562 134.242188 82.851562 C 133.792969 82.851562 133.425781 83.21875 133.425781 83.667969 C 133.425781 84.125 133.792969 84.488281 134.242188 84.488281 Z M 178.554688 84.644531 C 179.085938 84.644531 179.523438 84.207031 179.523438 83.667969 C 179.523438 83.132812 179.085938 82.699219 178.554688 82.699219 C 178.019531 82.699219 177.582031 83.132812 177.582031 83.667969 C 177.582031 84.207031 178.019531 84.644531 178.554688 84.644531 Z M 222.863281 84.789062 C 223.480469 84.789062 223.980469 84.289062 223.980469 83.667969 C 223.980469 83.050781 223.480469 82.550781 222.863281 82.550781 C 222.242188 82.550781 221.742188 83.050781 221.742188 83.667969 C 221.742188 84.289062 222.242188 84.789062 222.863281 84.789062 Z M 267.167969 84.9375 C 267.867188 84.9375 268.4375 84.367188 268.4375 83.667969 C 268.4375 82.96875 267.867188 82.398438 267.167969 82.398438 C 266.46875 82.398438 265.898438 82.96875 265.898438 83.667969 C 265.898438 84.367188 266.46875 84.9375 267.167969 84.9375 Z M 311.476562 85.085938 C 312.261719 85.085938 312.894531 84.449219 312.894531 83.667969 C 312.894531 82.886719 312.261719 82.25 311.476562 82.25 C 310.695312 82.25 310.054688 82.886719 310.054688 83.667969 C 310.054688 84.449219 310.695312 85.085938 311.476562 85.085938 Z M 355.78125 85.238281 C 356.648438 85.238281 357.351562 84.539062 357.351562 83.667969 C 357.351562 82.804688 356.648438 82.101562 355.78125 82.101562 C 354.917969 82.101562 354.21875 82.804688 354.21875 83.667969 C 354.21875 84.539062 354.917969 85.238281 355.78125 85.238281 Z M 400.09375 85.386719 C 401.039062 85.386719 401.804688 84.617188 401.804688 83.667969 C 401.804688 82.726562 401.039062 81.949219 400.09375 81.949219 C 399.144531 81.949219 398.375 82.726562 398.375 83.667969 C 398.375 84.617188 399.144531 85.386719 400.09375 85.386719 Z M 444.398438 85.539062 C 445.429688 85.539062 446.261719 84.699219 446.261719 83.667969 C 446.261719 82.636719 445.429688 81.800781 444.398438 81.800781 C 443.367188 81.800781 442.53125 82.636719 442.53125 83.667969 C 442.53125 84.699219 443.367188 85.539062 444.398438 85.539062 Z M 488.707031 85.6875 C 489.820312 85.6875 490.726562 84.78125 490.726562 83.667969 C 490.726562 82.554688 489.820312 81.65625 488.707031 81.65625 C 487.59375 81.65625 486.695312 82.554688 486.695312 83.667969 C 486.695312 84.78125 487.59375 85.6875 488.707031 85.6875 Z M 533.011719 85.835938 C 534.210938 85.835938 535.179688 84.863281 535.179688 83.667969 C 535.179688 82.476562 534.210938 81.507812 533.011719 81.507812 C 531.820312 81.507812 530.851562 82.476562 530.851562 83.667969 C 530.851562 84.863281 531.820312 85.835938 533.011719 85.835938 Z M 577.324219 85.980469 C 578.601562 85.980469 579.636719 84.949219 579.636719 83.667969 C 579.636719 82.394531 578.601562 81.355469 577.324219 81.355469 C 576.042969 81.355469 575.007812 82.394531 575.007812 83.667969 C 575.007812 84.949219 576.042969 85.980469 577.324219 85.980469 Z M 621.632812 86.132812 C 622.988281 86.132812 624.09375 85.03125 624.09375 83.667969 C 624.09375 82.3125 622.988281 81.207031 621.632812 81.207031 C 620.269531 81.207031 619.167969 82.3125 619.167969 83.667969 C 619.167969 85.03125 620.269531 86.132812 621.632812 86.132812 Z M 665.9375 86.28125 C 667.382812 86.28125 668.550781 85.113281 668.550781 83.667969 C 668.550781 82.226562 667.382812 81.054688 665.9375 81.054688 C 664.492188 81.054688 663.324219 82.226562 663.324219 83.667969 C 663.324219 85.113281 664.492188 86.28125 665.9375 86.28125 Z M 710.242188 86.429688 C 711.769531 86.429688 713.007812 85.195312 713.007812 83.667969 C 713.007812 82.144531 711.769531 80.90625 710.242188 80.90625 C 708.71875 80.90625 707.480469 82.144531 707.480469 83.667969 C 707.480469 85.195312 708.71875 86.429688 710.242188 86.429688 Z M 1.324219 125.488281 C 1.601562 125.488281 1.820312 125.261719 1.820312 124.988281 C 1.820312 124.710938 1.601562 124.492188 1.324219 124.492188 C 1.050781 124.492188 0.824219 124.710938 0.824219 124.988281 C 0.824219 125.261719 1.050781 125.488281 1.324219 125.488281 Z M 45.632812 125.6875 C 46.019531 125.6875 46.324219 125.375 46.324219 124.988281 C 46.324219 124.601562 46.019531 124.292969 45.632812 124.292969 C 45.242188 124.292969 44.9375 124.601562 44.9375 124.988281 C 44.9375 125.375 45.242188 125.6875 45.632812 125.6875 Z M 89.9375 125.882812 C 90.429688 125.882812 90.832031 125.480469 90.832031 124.988281 C 90.832031 124.492188 90.429688 124.09375 89.9375 124.09375 C 89.445312 124.09375 89.042969 124.492188 89.042969 124.988281 C 89.042969 125.480469 89.445312 125.882812 89.9375 125.882812 Z M 134.242188 126.082031 C 134.851562 126.082031 135.34375 125.59375 135.34375 124.988281 C 135.34375 124.382812 134.851562 123.894531 134.242188 123.894531 C 133.644531 123.894531 133.148438 124.382812 133.148438 124.988281 C 133.148438 125.59375 133.644531 126.082031 134.242188 126.082031 Z M 178.554688 126.28125 C 179.269531 126.28125 179.851562 125.699219 179.851562 124.988281 C 179.851562 124.273438 179.269531 123.695312 178.554688 123.695312 C 177.835938 123.695312 177.261719 124.273438 177.261719 124.988281 C 177.261719 125.699219 177.835938 126.28125 178.554688 126.28125 Z M 222.863281 126.480469 C 223.6875 126.480469 224.355469 125.8125 224.355469 124.988281 C 224.355469 124.164062 223.6875 123.492188 222.863281 123.492188 C 222.039062 123.492188 221.367188 124.164062 221.367188 124.988281 C 221.367188 125.8125 222.039062 126.480469 222.863281 126.480469 Z M 267.167969 126.679688 C 268.101562 126.679688 268.863281 125.925781 268.863281 124.988281 C 268.863281 124.054688 268.101562 123.292969 267.167969 123.292969 C 266.230469 123.292969 265.480469 124.054688 265.480469 124.988281 C 265.480469 125.925781 266.230469 126.679688 267.167969 126.679688 Z M 311.476562 126.882812 C 312.519531 126.882812 313.367188 126.03125 313.367188 124.988281 C 313.367188 123.945312 312.519531 123.101562 311.476562 123.101562 C 310.429688 123.101562 309.585938 123.945312 309.585938 124.988281 C 309.585938 126.03125 310.429688 126.882812 311.476562 126.882812 Z M 355.78125 127.082031 C 356.9375 127.082031 357.875 126.144531 357.875 124.988281 C 357.875 123.832031 356.9375 122.898438 355.78125 122.898438 C 354.632812 122.898438 353.695312 123.832031 353.695312 124.988281 C 353.695312 126.144531 354.632812 127.082031 355.78125 127.082031 Z M 400.09375 127.273438 C 401.355469 127.273438 402.382812 126.25 402.382812 124.988281 C 402.382812 123.726562 401.355469 122.699219 400.09375 122.699219 C 398.832031 122.699219 397.800781 123.726562 397.800781 124.988281 C 397.800781 126.25 398.832031 127.273438 400.09375 127.273438 Z M 444.398438 127.476562 C 445.773438 127.476562 446.886719 126.363281 446.886719 124.988281 C 446.886719 123.613281 445.773438 122.5 444.398438 122.5 C 443.023438 122.5 441.914062 123.613281 441.914062 124.988281 C 441.914062 126.363281 443.023438 127.476562 444.398438 127.476562 Z M 488.707031 127.675781 C 490.1875 127.675781 491.394531 126.476562 491.394531 124.988281 C 491.394531 123.507812 490.1875 122.300781 488.707031 122.300781 C 487.226562 122.300781 486.019531 123.507812 486.019531 124.988281 C 486.019531 126.476562 487.226562 127.675781 488.707031 127.675781 Z M 533.011719 127.875 C 534.613281 127.875 535.898438 126.582031 535.898438 124.988281 C 535.898438 123.394531 534.613281 122.101562 533.011719 122.101562 C 531.417969 122.101562 530.125 123.394531 530.125 124.988281 C 530.125 126.582031 531.417969 127.875 533.011719 127.875 Z M 577.324219 128.074219 C 579.023438 128.074219 580.40625 126.695312 580.40625 124.988281 C 580.40625 123.289062 579.023438 121.90625 577.324219 121.90625 C 575.617188 121.90625 574.238281 123.289062 574.238281 124.988281 C 574.238281 126.695312 575.617188 128.074219 577.324219 128.074219 Z M 621.632812 128.273438 C 623.445312 128.273438 624.914062 126.800781 624.914062 124.988281 C 624.914062 123.175781 623.445312 121.707031 621.632812 121.707031 C 619.820312 121.707031 618.34375 123.175781 618.34375 124.988281 C 618.34375 126.800781 619.820312 128.273438 621.632812 128.273438 Z M 665.9375 128.46875 C 667.863281 128.46875 669.417969 126.914062 669.417969 124.988281 C 669.417969 123.0625 667.863281 121.507812 665.9375 121.507812 C 664.011719 121.507812 662.457031 123.0625 662.457031 124.988281 C 662.457031 126.914062 664.011719 128.46875 665.9375 128.46875 Z M 710.242188 128.667969 C 712.28125 128.667969 713.925781 127.023438 713.925781 124.988281 C 713.925781 122.957031 712.28125 121.304688 710.242188 121.304688 C 708.210938 121.304688 706.5625 122.957031 706.5625 124.988281 C 706.5625 127.023438 708.210938 128.667969 710.242188 128.667969 Z M 1.324219 166.445312 C 1.644531 166.445312 1.90625 166.179688 1.90625 165.855469 C 1.90625 165.53125 1.644531 165.269531 1.324219 165.269531 C 1 165.269531 0.738281 165.53125 0.738281 165.855469 C 0.738281 166.179688 1 166.445312 1.324219 166.445312 Z M 45.632812 166.675781 C 46.082031 166.675781 46.449219 166.304688 46.449219 165.855469 C 46.449219 165.398438 46.082031 165.039062 45.632812 165.039062 C 45.175781 165.039062 44.8125 165.398438 44.8125 165.855469 C 44.8125 166.304688 45.175781 166.675781 45.632812 166.675781 Z M 89.9375 166.914062 C 90.519531 166.914062 90.992188 166.4375 90.992188 165.855469 C 90.992188 165.273438 90.519531 164.800781 89.9375 164.800781 C 89.355469 164.800781 88.886719 165.273438 88.886719 165.855469 C 88.886719 166.4375 89.355469 166.914062 89.9375 166.914062 Z M 134.242188 167.144531 C 134.957031 167.144531 135.539062 166.570312 135.539062 165.855469 C 135.539062 165.144531 134.957031 164.570312 134.242188 164.570312 C 133.539062 164.570312 132.957031 165.144531 132.957031 165.855469 C 132.957031 166.570312 133.539062 167.144531 134.242188 167.144531 Z M 178.554688 167.375 C 179.394531 167.375 180.074219 166.695312 180.074219 165.855469 C 180.074219 165.011719 179.394531 164.332031 178.554688 164.332031 C 177.710938 164.332031 177.03125 165.011719 177.03125 165.855469 C 177.03125 166.695312 177.710938 167.375 178.554688 167.375 Z M 222.863281 167.613281 C 223.832031 167.613281 224.617188 166.824219 224.617188 165.855469 C 224.617188 164.886719 223.832031 164.101562 222.863281 164.101562 C 221.894531 164.101562 221.105469 164.886719 221.105469 165.855469 C 221.105469 166.824219 221.894531 167.613281 222.863281 167.613281 Z M 267.167969 167.84375 C 268.269531 167.84375 269.164062 166.957031 269.164062 165.855469 C 269.164062 164.757812 268.269531 163.863281 267.167969 163.863281 C 266.070312 163.863281 265.175781 164.757812 265.175781 165.855469 C 265.175781 166.957031 266.070312 167.84375 267.167969 167.84375 Z M 311.476562 168.082031 C 312.707031 168.082031 313.699219 167.085938 313.699219 165.855469 C 313.699219 164.625 312.707031 163.632812 311.476562 163.632812 C 310.25 163.632812 309.25 164.625 309.25 165.855469 C 309.25 167.085938 310.25 168.082031 311.476562 168.082031 Z M 355.78125 168.3125 C 357.144531 168.3125 358.242188 167.210938 358.242188 165.855469 C 358.242188 164.5 357.144531 163.394531 355.78125 163.394531 C 354.425781 163.394531 353.324219 164.5 353.324219 165.855469 C 353.324219 167.210938 354.425781 168.3125 355.78125 168.3125 Z M 400.09375 168.550781 C 401.574219 168.550781 402.789062 167.34375 402.789062 165.855469 C 402.789062 164.367188 401.574219 163.164062 400.09375 163.164062 C 398.605469 163.164062 397.398438 164.367188 397.398438 165.855469 C 397.398438 167.34375 398.605469 168.550781 400.09375 168.550781 Z M 444.398438 168.78125 C 446.019531 168.78125 447.324219 167.476562 447.324219 165.855469 C 447.324219 164.238281 446.019531 162.925781 444.398438 162.925781 C 442.78125 162.925781 441.476562 164.238281 441.476562 165.855469 C 441.476562 167.476562 442.78125 168.78125 444.398438 168.78125 Z M 488.707031 169.019531 C 490.449219 169.019531 491.867188 167.601562 491.867188 165.855469 C 491.867188 164.113281 490.449219 162.695312 488.707031 162.695312 C 486.960938 162.695312 485.542969 164.113281 485.542969 165.855469 C 485.542969 167.601562 486.960938 169.019531 488.707031 169.019531 Z M 533.011719 169.25 C 534.894531 169.25 536.414062 167.730469 536.414062 165.855469 C 536.414062 163.980469 534.894531 162.460938 533.011719 162.460938 C 531.136719 162.460938 529.617188 163.980469 529.617188 165.855469 C 529.617188 167.730469 531.136719 169.25 533.011719 169.25 Z M 577.324219 169.488281 C 579.324219 169.488281 580.949219 167.863281 580.949219 165.855469 C 580.949219 163.851562 579.324219 162.226562 577.324219 162.226562 C 575.320312 162.226562 573.695312 163.851562 573.695312 165.855469 C 573.695312 167.863281 575.320312 169.488281 577.324219 169.488281 Z M 621.632812 169.71875 C 623.761719 169.71875 625.492188 167.988281 625.492188 165.855469 C 625.492188 163.71875 623.761719 161.992188 621.632812 161.992188 C 619.492188 161.992188 617.761719 163.71875 617.761719 165.855469 C 617.761719 167.988281 619.492188 169.71875 621.632812 169.71875 Z M 665.9375 169.957031 C 668.199219 169.957031 670.039062 168.117188 670.039062 165.855469 C 670.039062 163.59375 668.199219 161.757812 665.9375 161.757812 C 663.675781 161.757812 661.835938 163.59375 661.835938 165.855469 C 661.835938 168.117188 663.675781 169.957031 665.9375 169.957031 Z M 710.242188 170.1875 C 712.636719 170.1875 714.574219 168.25 714.574219 165.855469 C 714.574219 163.460938 712.636719 161.523438 710.242188 161.523438 C 707.851562 161.523438 705.914062 163.460938 705.914062 165.855469 C 705.914062 168.25 707.851562 170.1875 710.242188 170.1875 Z M 1.363281 207.605469 C 1.742188 207.605469 2.050781 207.292969 2.050781 206.914062 C 2.050781 206.53125 1.742188 206.226562 1.363281 206.226562 C 0.980469 206.226562 0.675781 206.53125 0.675781 206.914062 C 0.675781 207.292969 0.980469 207.605469 1.363281 207.605469 Z M 45.667969 207.882812 C 46.199219 207.882812 46.632812 207.449219 46.632812 206.914062 C 46.632812 206.382812 46.199219 205.949219 45.667969 205.949219 C 45.136719 205.949219 44.699219 206.382812 44.699219 206.914062 C 44.699219 207.449219 45.136719 207.882812 45.667969 207.882812 Z M 89.96875 208.15625 C 90.65625 208.15625 91.210938 207.601562 91.210938 206.914062 C 91.210938 206.230469 90.65625 205.675781 89.96875 205.675781 C 89.289062 205.675781 88.730469 206.230469 88.730469 206.914062 C 88.730469 207.601562 89.289062 208.15625 89.96875 208.15625 Z M 134.28125 208.429688 C 135.113281 208.429688 135.792969 207.75 135.792969 206.914062 C 135.792969 206.082031 135.113281 205.398438 134.28125 205.398438 C 133.4375 205.398438 132.761719 206.082031 132.761719 206.914062 C 132.761719 207.75 133.4375 208.429688 134.28125 208.429688 Z M 178.582031 208.707031 C 179.570312 208.707031 180.375 207.898438 180.375 206.914062 C 180.375 205.925781 179.570312 205.125 178.582031 205.125 C 177.59375 205.125 176.792969 205.925781 176.792969 206.914062 C 176.792969 207.898438 177.59375 208.707031 178.582031 208.707031 Z M 222.886719 208.980469 C 224.03125 208.980469 224.957031 208.054688 224.957031 206.914062 C 224.957031 205.773438 224.03125 204.851562 222.886719 204.851562 C 221.75 204.851562 220.820312 205.773438 220.820312 206.914062 C 220.820312 208.054688 221.75 208.980469 222.886719 208.980469 Z M 267.195312 209.257812 C 268.488281 209.257812 269.539062 208.207031 269.539062 206.914062 C 269.539062 205.617188 268.488281 204.574219 267.195312 204.574219 C 265.898438 204.574219 264.851562 205.617188 264.851562 206.914062 C 264.851562 208.207031 265.898438 209.257812 267.195312 209.257812 Z M 311.5 209.53125 C 312.945312 209.53125 314.113281 208.363281 314.113281 206.914062 C 314.113281 205.46875 312.945312 204.300781 311.5 204.300781 C 310.050781 204.300781 308.882812 205.46875 308.882812 206.914062 C 308.882812 208.363281 310.050781 209.53125 311.5 209.53125 Z M 355.804688 209.804688 C 357.398438 209.804688 358.699219 208.511719 358.699219 206.914062 C 358.699219 205.320312 357.398438 204.023438 355.804688 204.023438 C 354.207031 204.023438 352.914062 205.320312 352.914062 206.914062 C 352.914062 208.511719 354.207031 209.804688 355.804688 209.804688 Z M 400.105469 210.082031 C 401.855469 210.082031 403.273438 208.664062 403.273438 206.914062 C 403.273438 205.164062 401.855469 203.742188 400.105469 203.742188 C 398.363281 203.742188 396.945312 205.164062 396.945312 206.914062 C 396.945312 208.664062 398.363281 210.082031 400.105469 210.082031 Z M 444.414062 210.355469 C 446.3125 210.355469 447.855469 208.820312 447.855469 206.914062 C 447.855469 205.011719 446.3125 203.46875 444.414062 203.46875 C 442.511719 203.46875 440.96875 205.011719 440.96875 206.914062 C 440.96875 208.820312 442.511719 210.355469 444.414062 210.355469 Z M 488.71875 210.632812 C 490.773438 210.632812 492.4375 208.96875 492.4375 206.914062 C 492.4375 204.863281 490.773438 203.195312 488.71875 203.195312 C 486.664062 203.195312 485 204.863281 485 206.914062 C 485 208.96875 486.664062 210.632812 488.71875 210.632812 Z M 533.023438 210.90625 C 535.230469 210.90625 537.019531 209.117188 537.019531 206.914062 C 537.019531 204.707031 535.230469 202.917969 533.023438 202.917969 C 530.820312 202.917969 529.03125 204.707031 529.03125 206.914062 C 529.03125 209.117188 530.820312 210.90625 533.023438 210.90625 Z M 577.332031 211.179688 C 579.6875 211.179688 581.601562 209.273438 581.601562 206.914062 C 581.601562 204.554688 579.6875 202.644531 577.332031 202.644531 C 574.96875 202.644531 573.054688 204.554688 573.054688 206.914062 C 573.054688 209.273438 574.96875 211.179688 577.332031 211.179688 Z M 621.636719 211.460938 C 624.144531 211.460938 626.179688 209.425781 626.179688 206.914062 C 626.179688 204.40625 624.144531 202.367188 621.636719 202.367188 C 619.125 202.367188 617.085938 204.40625 617.085938 206.914062 C 617.085938 209.425781 619.125 211.460938 621.636719 211.460938 Z M 665.9375 211.738281 C 668.605469 211.738281 670.761719 209.574219 670.761719 206.914062 C 670.761719 204.25 668.605469 202.09375 665.9375 202.09375 C 663.273438 202.09375 661.117188 204.25 661.117188 206.914062 C 661.117188 209.574219 663.273438 211.738281 665.9375 211.738281 Z M 710.242188 212.011719 C 713.0625 212.011719 715.34375 209.726562 715.34375 206.914062 C 715.34375 204.101562 713.0625 201.820312 710.242188 201.820312 C 707.429688 201.820312 705.148438 204.101562 705.148438 206.914062 C 705.148438 209.726562 707.429688 212.011719 710.242188 212.011719 Z M 1.324219 249.007812 C 1.769531 249.007812 2.132812 248.644531 2.132812 248.199219 C 2.132812 247.75 1.769531 247.386719 1.324219 247.386719 C 0.875 247.386719 0.511719 247.75 0.511719 248.199219 C 0.511719 248.644531 0.875 249.007812 1.324219 249.007812 Z M 45.632812 249.332031 C 46.257812 249.332031 46.769531 248.824219 46.769531 248.199219 C 46.769531 247.570312 46.257812 247.0625 45.632812 247.0625 C 45.007812 247.0625 44.5 247.570312 44.5 248.199219 C 44.5 248.824219 45.007812 249.332031 45.632812 249.332031 Z M 89.9375 249.65625 C 90.742188 249.65625 91.394531 249.007812 91.394531 248.199219 C 91.394531 247.394531 90.742188 246.738281 89.9375 246.738281 C 89.132812 246.738281 88.480469 247.394531 88.480469 248.199219 C 88.480469 249.007812 89.132812 249.65625 89.9375 249.65625 Z M 134.242188 249.980469 C 135.230469 249.980469 136.03125 249.179688 136.03125 248.195312 C 136.03125 247.210938 135.230469 246.414062 134.242188 246.414062 C 133.261719 246.414062 132.460938 247.210938 132.460938 248.195312 C 132.460938 249.179688 133.261719 249.980469 134.242188 249.980469 Z M 178.554688 250.304688 C 179.71875 250.304688 180.664062 249.363281 180.664062 248.199219 C 180.664062 247.03125 179.71875 246.09375 178.554688 246.09375 C 177.386719 246.09375 176.445312 247.03125 176.445312 248.199219 C 176.445312 249.363281 177.386719 250.304688 178.554688 250.304688 Z M 222.863281 250.625 C 224.207031 250.625 225.292969 249.542969 225.292969 248.195312 C 225.292969 246.855469 224.207031 245.769531 222.863281 245.769531 C 221.519531 245.769531 220.429688 246.855469 220.429688 248.195312 C 220.429688 249.542969 221.519531 250.625 222.863281 250.625 Z M 267.167969 250.949219 C 268.695312 250.949219 269.925781 249.71875 269.925781 248.195312 C 269.925781 246.675781 268.695312 245.445312 267.167969 245.445312 C 265.644531 245.445312 264.414062 246.675781 264.414062 248.195312 C 264.414062 249.71875 265.644531 250.949219 267.167969 250.949219 Z M 311.476562 251.273438 C 313.175781 251.273438 314.554688 249.898438 314.554688 248.195312 C 314.554688 246.5 313.175781 245.117188 311.476562 245.117188 C 309.773438 245.117188 308.394531 246.5 308.394531 248.195312 C 308.394531 249.898438 309.773438 251.273438 311.476562 251.273438 Z M 355.78125 251.601562 C 357.664062 251.601562 359.1875 250.074219 359.1875 248.195312 C 359.1875 246.320312 357.664062 244.792969 355.78125 244.792969 C 353.90625 244.792969 352.382812 246.320312 352.382812 248.195312 C 352.382812 250.074219 353.90625 251.601562 355.78125 251.601562 Z M 400.09375 251.925781 C 402.148438 251.925781 403.820312 250.257812 403.820312 248.195312 C 403.820312 246.136719 402.148438 244.46875 400.09375 244.46875 C 398.03125 244.46875 396.367188 246.136719 396.367188 248.195312 C 396.367188 250.257812 398.03125 251.925781 400.09375 251.925781 Z M 444.398438 252.25 C 446.636719 252.25 448.449219 250.4375 448.449219 248.195312 C 448.449219 245.960938 446.636719 244.148438 444.398438 244.148438 C 442.164062 244.148438 440.351562 245.960938 440.351562 248.195312 C 440.351562 250.4375 442.164062 252.25 444.398438 252.25 Z M 488.707031 252.574219 C 491.125 252.574219 493.082031 250.613281 493.082031 248.195312 C 493.082031 245.78125 491.125 243.824219 488.707031 243.824219 C 486.292969 243.824219 484.332031 245.78125 484.332031 248.195312 C 484.332031 250.613281 486.292969 252.574219 488.707031 252.574219 Z M 533.011719 252.894531 C 535.613281 252.894531 537.710938 250.792969 537.710938 248.195312 C 537.710938 245.601562 535.613281 243.5 533.011719 243.5 C 530.417969 243.5 528.3125 245.601562 528.3125 248.195312 C 528.3125 250.792969 530.417969 252.894531 533.011719 252.894531 Z M 577.324219 253.226562 C 580.09375 253.226562 582.351562 250.976562 582.351562 248.195312 C 582.351562 245.425781 580.09375 243.175781 577.324219 243.175781 C 574.550781 243.175781 572.300781 245.425781 572.300781 248.195312 C 572.300781 250.976562 574.550781 253.226562 577.324219 253.226562 Z M 621.632812 253.542969 C 624.582031 253.542969 626.976562 251.148438 626.976562 248.195312 C 626.976562 245.242188 624.582031 242.851562 621.632812 242.851562 C 618.675781 242.851562 616.28125 245.242188 616.28125 248.195312 C 616.28125 251.148438 618.675781 253.542969 621.632812 253.542969 Z M 665.9375 253.867188 C 669.070312 253.867188 671.613281 251.332031 671.613281 248.195312 C 671.613281 245.0625 669.070312 242.523438 665.9375 242.523438 C 662.804688 242.523438 660.261719 245.0625 660.261719 248.195312 C 660.261719 251.332031 662.804688 253.867188 665.9375 253.867188 Z M 710.242188 254.195312 C 713.554688 254.195312 716.238281 251.507812 716.238281 248.195312 C 716.238281 244.886719 713.554688 242.199219 710.242188 242.199219 C 706.929688 242.199219 704.25 244.886719 704.25 248.195312 C 704.25 251.507812 706.929688 254.195312 710.242188 254.195312 Z M 1.324219 290.699219 C 1.851562 290.699219 2.273438 290.273438 2.273438 289.742188 C 2.273438 289.21875 1.851562 288.792969 1.324219 288.792969 C 0.792969 288.792969 0.367188 289.21875 0.367188 289.742188 C 0.367188 290.273438 0.792969 290.699219 1.324219 290.699219 Z M 45.632812 291.082031 C 46.367188 291.082031 46.96875 290.480469 46.96875 289.742188 C 46.96875 289.007812 46.367188 288.414062 45.632812 288.414062 C 44.894531 288.414062 44.300781 289.007812 44.300781 289.742188 C 44.300781 290.480469 44.894531 291.082031 45.632812 291.082031 Z M 89.9375 291.460938 C 90.886719 291.460938 91.65625 290.695312 91.65625 289.742188 C 91.65625 288.792969 90.886719 288.03125 89.9375 288.03125 C 88.988281 288.03125 88.226562 288.792969 88.226562 289.742188 C 88.226562 290.695312 88.988281 291.460938 89.9375 291.460938 Z M 134.242188 291.84375 C 135.40625 291.84375 136.34375 290.90625 136.34375 289.742188 C 136.34375 288.585938 135.40625 287.648438 134.242188 287.648438 C 133.085938 287.648438 132.148438 288.585938 132.148438 289.742188 C 132.148438 290.90625 133.085938 291.84375 134.242188 291.84375 Z M 178.554688 292.226562 C 179.925781 292.226562 181.03125 291.113281 181.03125 289.742188 C 181.03125 288.375 179.925781 287.269531 178.554688 287.269531 C 177.1875 287.269531 176.074219 288.375 176.074219 289.742188 C 176.074219 291.113281 177.1875 292.226562 178.554688 292.226562 Z M 222.863281 292.605469 C 224.4375 292.605469 225.71875 291.324219 225.71875 289.742188 C 225.71875 288.167969 224.4375 286.886719 222.863281 286.886719 C 221.28125 286.886719 220 288.167969 220 289.742188 C 220 291.324219 221.28125 292.605469 222.863281 292.605469 Z M 267.167969 292.988281 C 268.960938 292.988281 270.414062 291.539062 270.414062 289.742188 C 270.414062 287.957031 268.960938 286.507812 267.167969 286.507812 C 265.382812 286.507812 263.925781 287.957031 263.925781 289.742188 C 263.925781 291.539062 265.382812 292.988281 267.167969 292.988281 Z M 311.476562 293.367188 C 313.476562 293.367188 315.101562 291.742188 315.101562 289.742188 C 315.101562 287.742188 313.476562 286.125 311.476562 286.125 C 309.476562 286.125 307.855469 287.742188 307.855469 289.742188 C 307.855469 291.742188 309.476562 293.367188 311.476562 293.367188 Z M 355.78125 293.75 C 357.992188 293.75 359.789062 291.957031 359.789062 289.742188 C 359.789062 287.539062 357.992188 285.742188 355.78125 285.742188 C 353.574219 285.742188 351.78125 287.539062 351.78125 289.742188 C 351.78125 291.957031 353.574219 293.75 355.78125 293.75 Z M 400.09375 294.132812 C 402.511719 294.132812 404.476562 292.167969 404.476562 289.742188 C 404.476562 287.324219 402.511719 285.363281 400.09375 285.363281 C 397.667969 285.363281 395.707031 287.324219 395.707031 289.742188 C 395.707031 292.167969 397.667969 294.132812 400.09375 294.132812 Z M 444.398438 294.511719 C 447.03125 294.511719 449.167969 292.375 449.167969 289.742188 C 449.167969 287.113281 447.03125 284.980469 444.398438 284.980469 C 441.769531 284.980469 439.632812 287.113281 439.632812 289.742188 C 439.632812 292.375 441.769531 294.511719 444.398438 294.511719 Z M 488.707031 294.894531 C 491.550781 294.894531 493.855469 292.585938 493.855469 289.742188 C 493.855469 286.898438 491.550781 284.601562 488.707031 284.601562 C 485.863281 284.601562 483.5625 286.898438 483.5625 289.742188 C 483.5625 292.585938 485.863281 294.894531 488.707031 294.894531 Z M 533.011719 295.273438 C 536.070312 295.273438 538.542969 292.800781 538.542969 289.742188 C 538.542969 286.695312 536.070312 284.21875 533.011719 284.21875 C 529.960938 284.21875 527.488281 286.695312 527.488281 289.742188 C 527.488281 292.800781 529.960938 295.273438 533.011719 295.273438 Z M 577.324219 295.65625 C 580.585938 295.65625 583.230469 293.011719 583.230469 289.742188 C 583.230469 286.480469 580.585938 283.835938 577.324219 283.835938 C 574.054688 283.835938 571.414062 286.480469 571.414062 289.742188 C 571.414062 293.011719 574.054688 295.65625 577.324219 295.65625 Z M 621.632812 296.039062 C 625.105469 296.039062 627.925781 293.21875 627.925781 289.742188 C 627.925781 286.269531 625.105469 283.449219 621.632812 283.449219 C 618.15625 283.449219 615.335938 286.269531 615.335938 289.742188 C 615.335938 293.21875 618.15625 296.039062 621.632812 296.039062 Z M 665.9375 296.417969 C 669.625 296.417969 672.613281 293.429688 672.613281 289.742188 C 672.613281 286.054688 669.625 283.074219 665.9375 283.074219 C 662.25 283.074219 659.261719 286.054688 659.261719 289.742188 C 659.261719 293.429688 662.25 296.417969 665.9375 296.417969 Z M 710.242188 296.800781 C 714.144531 296.800781 717.300781 293.644531 717.300781 289.742188 C 717.300781 285.851562 714.144531 282.6875 710.242188 282.6875 C 706.351562 282.6875 703.1875 285.851562 703.1875 289.742188 C 703.1875 293.644531 706.351562 296.800781 710.242188 296.800781 Z M 1.320312 332.726562 C 1.9375 332.726562 2.4375 332.226562 2.4375 331.605469 C 2.4375 330.980469 1.9375 330.480469 1.320312 330.480469 C 0.699219 330.480469 0.199219 330.980469 0.199219 331.605469 C 0.199219 332.226562 0.699219 332.726562 1.320312 332.726562 Z M 45.625 333.175781 C 46.492188 333.175781 47.195312 332.476562 47.195312 331.605469 C 47.195312 330.738281 46.492188 330.039062 45.625 330.039062 C 44.761719 330.039062 44.054688 330.738281 44.054688 331.605469 C 44.054688 332.476562 44.761719 333.175781 45.625 333.175781 Z M 89.929688 333.625 C 91.050781 333.625 91.957031 332.71875 91.957031 331.605469 C 91.957031 330.488281 91.050781 329.585938 89.929688 329.585938 C 88.820312 329.585938 87.914062 330.488281 87.914062 331.605469 C 87.914062 332.71875 88.820312 333.625 89.929688 333.625 Z M 134.238281 334.074219 C 135.605469 334.074219 136.707031 332.96875 136.707031 331.605469 C 136.707031 330.242188 135.605469 329.136719 134.238281 329.136719 C 132.882812 329.136719 131.773438 330.242188 131.773438 331.605469 C 131.773438 332.96875 132.882812 334.074219 134.238281 334.074219 Z M 178.550781 334.519531 C 180.164062 334.519531 181.460938 333.210938 181.460938 331.605469 C 181.460938 329.992188 180.164062 328.6875 178.550781 328.6875 C 176.9375 328.6875 175.632812 329.992188 175.632812 331.605469 C 175.632812 333.210938 176.9375 334.519531 178.550781 334.519531 Z M 222.855469 334.96875 C 224.710938 334.96875 226.21875 333.460938 226.21875 331.605469 C 226.21875 329.75 224.710938 328.238281 222.855469 328.238281 C 221 328.238281 219.492188 329.75 219.492188 331.605469 C 219.492188 333.460938 221 334.96875 222.855469 334.96875 Z M 267.164062 335.417969 C 269.269531 335.417969 270.976562 333.710938 270.976562 331.605469 C 270.976562 329.5 269.269531 327.792969 267.164062 327.792969 C 265.054688 327.792969 263.351562 329.5 263.351562 331.605469 C 263.351562 333.710938 265.054688 335.417969 267.164062 335.417969 Z M 311.46875 335.867188 C 313.824219 335.867188 315.730469 333.957031 315.730469 331.605469 C 315.730469 329.25 313.824219 327.34375 311.46875 327.34375 C 309.117188 327.34375 307.210938 329.25 307.210938 331.605469 C 307.210938 333.957031 309.117188 335.867188 311.46875 335.867188 Z M 355.773438 336.3125 C 358.382812 336.3125 360.488281 334.207031 360.488281 331.605469 C 360.488281 329.007812 358.382812 326.894531 355.773438 326.894531 C 353.175781 326.894531 351.070312 329.007812 351.070312 331.605469 C 351.070312 334.207031 353.175781 336.3125 355.773438 336.3125 Z M 400.085938 336.761719 C 402.9375 336.761719 405.242188 334.449219 405.242188 331.605469 C 405.242188 328.757812 402.9375 326.445312 400.085938 326.445312 C 397.238281 326.445312 394.925781 328.757812 394.925781 331.605469 C 394.925781 334.449219 397.238281 336.761719 400.085938 336.761719 Z M 444.394531 337.210938 C 447.488281 337.210938 450 334.699219 450 331.605469 C 450 328.507812 447.488281 325.992188 444.394531 325.992188 C 441.292969 325.992188 438.789062 328.507812 438.789062 331.605469 C 438.789062 334.699219 441.292969 337.210938 444.394531 337.210938 Z M 488.699219 337.664062 C 492.042969 337.664062 494.757812 334.949219 494.757812 331.605469 C 494.757812 328.261719 492.042969 325.550781 488.699219 325.550781 C 485.355469 325.550781 482.644531 328.261719 482.644531 331.605469 C 482.644531 334.949219 485.355469 337.664062 488.699219 337.664062 Z M 533.007812 338.113281 C 536.601562 338.113281 539.511719 335.195312 539.511719 331.605469 C 539.511719 328.011719 536.601562 325.101562 533.007812 325.101562 C 529.417969 325.101562 526.5 328.011719 526.5 331.605469 C 526.5 335.195312 529.417969 338.113281 533.007812 338.113281 Z M 577.3125 338.554688 C 581.15625 338.554688 584.269531 335.445312 584.269531 331.605469 C 584.269531 327.761719 581.15625 324.648438 577.3125 324.648438 C 573.476562 324.648438 570.363281 327.761719 570.363281 331.605469 C 570.363281 335.445312 573.476562 338.554688 577.3125 338.554688 Z M 621.625 339.007812 C 625.710938 339.007812 629.023438 335.695312 629.023438 331.605469 C 629.023438 327.519531 625.710938 324.207031 621.625 324.207031 C 617.539062 324.207031 614.21875 327.519531 614.21875 331.605469 C 614.21875 335.695312 617.539062 339.007812 621.625 339.007812 Z M 665.929688 339.457031 C 670.261719 339.457031 673.78125 335.945312 673.78125 331.605469 C 673.78125 327.269531 670.261719 323.757812 665.929688 323.757812 C 661.59375 323.757812 658.082031 327.269531 658.082031 331.605469 C 658.082031 335.945312 661.59375 339.457031 665.929688 339.457031 Z M 710.238281 339.90625 C 714.820312 339.90625 718.539062 336.1875 718.539062 331.605469 C 718.539062 327.023438 714.820312 323.304688 710.238281 323.304688 C 705.648438 323.304688 701.9375 327.023438 701.9375 331.605469 C 701.9375 336.1875 705.648438 339.90625 710.238281 339.90625 Z M 1.320312 375.148438 C 2.042969 375.148438 2.636719 374.554688 2.636719 373.832031 C 2.636719 373.101562 2.042969 372.511719 1.320312 372.511719 C 0.585938 372.511719 0 373.101562 0 373.832031 C 0 374.554688 0.585938 375.148438 1.320312 375.148438 Z M 45.625 375.675781 C 46.644531 375.675781 47.476562 374.851562 47.476562 373.832031 C 47.476562 372.8125 46.644531 371.980469 45.625 371.980469 C 44.605469 371.980469 43.78125 372.8125 43.78125 373.832031 C 43.78125 374.851562 44.605469 375.675781 45.625 375.675781 Z M 89.929688 376.207031 C 91.242188 376.207031 92.304688 375.144531 92.304688 373.832031 C 92.304688 372.519531 91.242188 371.457031 89.929688 371.457031 C 88.625 371.457031 87.5625 372.519531 87.5625 373.832031 C 87.5625 375.144531 88.625 376.207031 89.929688 376.207031 Z M 134.238281 376.730469 C 135.84375 376.730469 137.144531 375.429688 137.144531 373.832031 C 137.144531 372.226562 135.84375 370.925781 134.238281 370.925781 C 132.636719 370.925781 131.335938 372.226562 131.335938 373.832031 C 131.335938 375.429688 132.636719 376.730469 134.238281 376.730469 Z M 178.550781 377.257812 C 180.445312 377.257812 181.980469 375.726562 181.980469 373.832031 C 181.980469 371.9375 180.445312 370.398438 178.550781 370.398438 C 176.65625 370.398438 175.117188 371.9375 175.117188 373.832031 C 175.117188 375.726562 176.65625 377.257812 178.550781 377.257812 Z M 222.855469 377.789062 C 225.042969 377.789062 226.8125 376.019531 226.8125 373.832031 C 226.8125 371.644531 225.042969 369.867188 222.855469 369.867188 C 220.667969 369.867188 218.898438 371.644531 218.898438 373.832031 C 218.898438 376.019531 220.667969 377.789062 222.855469 377.789062 Z M 267.164062 378.320312 C 269.636719 378.320312 271.648438 376.304688 271.648438 373.832031 C 271.648438 371.351562 269.636719 369.34375 267.164062 369.34375 C 264.6875 369.34375 262.679688 371.351562 262.679688 373.832031 C 262.679688 376.304688 264.6875 378.320312 267.164062 378.320312 Z M 311.46875 378.84375 C 314.238281 378.84375 316.488281 376.601562 316.488281 373.832031 C 316.488281 371.0625 314.238281 368.820312 311.46875 368.820312 C 308.699219 368.820312 306.457031 371.0625 306.457031 373.832031 C 306.457031 376.601562 308.699219 378.84375 311.46875 378.84375 Z M 355.773438 379.367188 C 358.835938 379.367188 361.320312 376.886719 361.320312 373.832031 C 361.320312 370.769531 358.835938 368.289062 355.773438 368.289062 C 352.71875 368.289062 350.238281 370.769531 350.238281 373.832031 C 350.238281 376.886719 352.71875 379.367188 355.773438 379.367188 Z M 400.085938 379.898438 C 403.4375 379.898438 406.15625 377.179688 406.15625 373.832031 C 406.15625 370.480469 403.4375 367.761719 400.085938 367.761719 C 396.730469 367.761719 394.019531 370.480469 394.019531 373.832031 C 394.019531 377.179688 396.730469 379.898438 400.085938 379.898438 Z M 444.394531 380.425781 C 448.039062 380.425781 450.988281 377.476562 450.988281 373.832031 C 450.988281 370.1875 448.039062 367.230469 444.394531 367.230469 C 440.75 367.230469 437.792969 370.1875 437.792969 373.832031 C 437.792969 377.476562 440.75 380.425781 444.394531 380.425781 Z M 488.699219 380.957031 C 492.636719 380.957031 495.824219 377.761719 495.824219 373.832031 C 495.824219 369.894531 492.636719 366.707031 488.699219 366.707031 C 484.769531 366.707031 481.574219 369.894531 481.574219 373.832031 C 481.574219 377.761719 484.769531 380.957031 488.699219 380.957031 Z M 533.007812 381.480469 C 537.230469 381.480469 540.65625 378.054688 540.65625 373.832031 C 540.65625 369.605469 537.230469 366.175781 533.007812 366.175781 C 528.78125 366.175781 525.355469 369.605469 525.355469 373.832031 C 525.355469 378.054688 528.78125 381.480469 533.007812 381.480469 Z M 577.3125 382.011719 C 581.832031 382.011719 585.492188 378.351562 585.492188 373.832031 C 585.492188 369.3125 581.832031 365.648438 577.3125 365.648438 C 572.792969 365.648438 569.136719 369.3125 569.136719 373.832031 C 569.136719 378.351562 572.792969 382.011719 577.3125 382.011719 Z M 621.625 382.539062 C 626.429688 382.539062 630.332031 378.636719 630.332031 373.832031 C 630.332031 369.019531 626.429688 365.117188 621.625 365.117188 C 616.8125 365.117188 612.914062 369.019531 612.914062 373.832031 C 612.914062 378.636719 616.8125 382.539062 621.625 382.539062 Z M 665.929688 383.0625 C 671.03125 383.0625 675.164062 378.929688 675.164062 373.832031 C 675.164062 368.726562 671.03125 364.59375 665.929688 364.59375 C 660.832031 364.59375 656.695312 368.726562 656.695312 373.832031 C 656.695312 378.929688 660.832031 383.0625 665.929688 383.0625 Z M 700.476562 373.832031 C 700.476562 368.4375 704.84375 364.0625 710.238281 364.0625 C 715.632812 364.0625 720 368.4375 720 373.832031 C 720 379.226562 715.632812 383.59375 710.238281 383.59375 C 704.84375 383.59375 700.476562 379.226562 700.476562 373.832031 " fill-opacity="1" fill-rule="nonzero"/></g></g></g></g></svg>