<svg xmlns="http://www.w3.org/2000/svg" xmlns:xlink="http://www.w3.org/1999/xlink" width="1080" zoomAndPan="magnify" viewBox="0 0 810 809.999993" height="1080" preserveAspectRatio="xMidYMid meet" version="1.2"><defs><filter x="0%" y="0%" width="100%" filterUnits="objectBoundingBox" id="573dd6d95b" height="100%"><feColorMatrix values="0 0 0 0 1 0 0 0 0 1 0 0 0 0 1 0 0 0 1 0" type="matrix" in="SourceGraphic"/></filter><clipPath id="7290039cfc"><path d="M 2 1.574219 L 774 1.574219 L 774 727 L 2 727 Z M 2 1.574219 "/></clipPath><clipPath id="74bde63ae1"><rect x="0" width="775" y="0" height="728"/></clipPath></defs><g id="e9b0661f09"><g mask="url(#df7f0c7b00)" transform="matrix(1,0,0,1,17,40)"><g clip-path="url(#74bde63ae1)"><g clip-rule="nonzero" clip-path="url(#7290039cfc)"><path style=" stroke:none;fill-rule:nonzero;fill:#696969;fill-opacity:1;" d="M 272.296875 1.53125 L 142.78125 44.703125 L 272.296875 260.492188 Z M 133.21875 50.609375 L 51.375 132.453125 L 255.84375 255.078125 Z M 45.46875 141.945312 L 5.957031 260.632812 L 243.332031 260.632812 Z M 761.039062 172.109375 L 626.039062 262.109375 L 626.320312 262.53125 L 644.109375 262.53125 C 642.472656 268.535156 640.828125 274.535156 639.117188 280.53125 L 773.554688 190.878906 L 761.039062 172.105469 Z M 2.292969 271.53125 C 2.292969 271.53125 60.808594 496.53125 137.292969 496.53125 L 497.292969 496.53125 C 573.777344 496.53125 632.292969 271.53125 632.292969 271.53125 Z M 284.039062 505.53125 L 206.976562 583.15625 C 216.035156 584.386719 224.8125 587.320312 232.851562 591.664062 L 309.28125 514.738281 L 387.890625 593.914062 C 395.3125 589.097656 403.589844 585.679688 412.359375 583.929688 L 334.59375 505.671875 C 317.746094 505.644531 300.890625 505.578125 284.039062 505.53125 Z M 196.851562 591.523438 C 159.699219 591.523438 129.5625 621.589844 129.5625 658.742188 C 129.5625 695.894531 159.699219 726.03125 196.851562 726.03125 C 234.003906 726.03125 264.070312 695.894531 264.070312 658.742188 C 264.070312 621.589844 234.003906 591.523438 196.851562 591.523438 Z M 428.242188 591.523438 C 391.089844 591.523438 360.953125 621.589844 360.953125 658.742188 C 360.953125 695.894531 391.089844 726.03125 428.242188 726.03125 C 465.390625 726.03125 495.460938 695.894531 495.460938 658.742188 C 495.460938 621.589844 465.390625 591.523438 428.242188 591.523438 Z M 195.367188 599.609375 C 195.484375 599.605469 195.601562 599.613281 195.71875 599.609375 C 207.015625 599.183594 218.058594 602.433594 227.640625 608.398438 C 227.703125 608.4375 227.789062 608.429688 227.851562 608.46875 L 227.78125 608.539062 C 259.683594 626.316406 265.050781 672.597656 240.789062 698.609375 C 240.742188 698.65625 240.691406 698.699219 240.648438 698.75 C 240.625 698.773438 240.601562 698.792969 240.578125 698.820312 C 215.792969 728.269531 166.152344 722.378906 146.429688 690.242188 C 146.382812 690.167969 146.332031 690.105469 146.289062 690.03125 C 121.1875 653.824219 151.398438 598.570312 195.363281 599.609375 Z M 426.753906 599.609375 C 426.871094 599.605469 426.988281 599.613281 427.105469 599.609375 C 438.40625 599.183594 449.449219 602.433594 459.03125 608.398438 C 459.09375 608.4375 459.179688 608.429688 459.242188 608.46875 L 459.171875 608.539062 C 491.074219 626.316406 496.441406 672.597656 472.179688 698.609375 C 472.132812 698.65625 472.082031 698.699219 472.039062 698.75 C 472.015625 698.773438 471.988281 698.792969 471.96875 698.820312 C 447.183594 728.269531 397.542969 722.378906 377.816406 690.242188 C 377.773438 690.167969 377.722656 690.105469 377.675781 690.03125 C 352.578125 653.824219 382.789062 598.570312 426.753906 599.609375 Z M 195.433594 608.1875 C 158.589844 607.066406 132.292969 655.113281 153.457031 685.320312 L 153.527344 685.460938 L 153.597656 685.53125 C 170.144531 712.785156 213.445312 718.046875 234.175781 693.125 L 234.386719 692.914062 C 254.945312 671.117188 250.417969 630.683594 223.558594 615.851562 L 223.417969 615.78125 L 223.347656 615.78125 C 214.96875 610.523438 205.40625 607.757812 195.785156 608.1875 Z M 426.824219 608.1875 C 389.980469 607.066406 363.679688 655.113281 384.847656 685.320312 L 384.917969 685.460938 L 384.988281 685.53125 C 401.535156 712.785156 444.835938 718.046875 465.566406 693.125 L 465.777344 692.914062 C 486.335938 671.117188 481.804688 630.683594 454.949219 615.851562 L 454.808594 615.78125 L 454.738281 615.78125 C 446.359375 610.523438 436.796875 607.757812 427.175781 608.1875 Z M 426.824219 608.1875 "/></g></g><mask id="df7f0c7b00"><g filter="url(#573dd6d95b)"><rect x="0" width="810" y="0" height="809.999993" style="fill:#000000;fill-opacity:0.38;stroke:none;"/></g></mask></g></g></svg>