<svg xmlns="http://www.w3.org/2000/svg" xmlns:xlink="http://www.w3.org/1999/xlink" width="1080" zoomAndPan="magnify" viewBox="0 0 810 809.999993" height="1080" preserveAspectRatio="xMidYMid meet" version="1.2"><defs><filter x="0%" y="0%" width="100%" filterUnits="objectBoundingBox" id="aa3eef88ef" height="100%"><feColorMatrix values="0 0 0 0 1 0 0 0 0 1 0 0 0 0 1 0 0 0 1 0" type="matrix" in="SourceGraphic"/></filter><clipPath id="bc6e611e22"><path d="M 1.65625 48 L 376 48 L 376 791 L 1.65625 791 Z M 1.65625 48 "/></clipPath><clipPath id="bdca7e39ff"><path d="M 72 47 L 442.65625 47 L 442.65625 792.519531 L 72 792.519531 Z M 72 47 "/></clipPath><clipPath id="8fed16eb54"><rect x="0" width="444" y="0" height="793"/></clipPath></defs><g id="5e8cbea7d0"><g mask="url(#0022c87fc2)" transform="matrix(1,0,0,1,183,17)"><g clip-path="url(#8fed16eb54)"><g clip-rule="nonzero" clip-path="url(#bc6e611e22)"><path style=" stroke:none;fill-rule:nonzero;fill:#696969;fill-opacity:1;" d="M 312.550781 48.769531 C 312.550781 48.769531 364.523438 144.226562 371.671875 178.996094 C 406.933594 350.699219 185.28125 679.570312 59.910156 790.933594 L 1.59375 625.003906 C 238.535156 376.234375 312.550781 48.769531 312.550781 48.769531 Z M 312.550781 48.769531 "/></g><g clip-rule="nonzero" clip-path="url(#bdca7e39ff)"><path style=" stroke:none;fill-rule:nonzero;fill:#696969;fill-opacity:1;" d="M 442.242188 627.171875 L 382.3125 792.5 C 258.03125 679.964844 39.386719 348.847656 76.589844 177.527344 C 84.101562 142.851562 137.464844 47.933594 137.464844 47.933594 C 137.464844 47.933594 207.765625 376.09375 442.242188 627.171875 Z M 442.242188 627.171875 "/></g><path style=" stroke:none;fill-rule:nonzero;fill:#696969;fill-opacity:1;" d="M 371.292969 179.773438 C 227.609375 17.9375 76.652344 178.585938 76.652344 178.585938 C 76.652344 178.585938 116.769531 77.800781 137.449219 47.933594 C 161.261719 13.589844 249.160156 -36.105469 312.550781 48.769531 C 325.53125 66.164062 364.445312 147.261719 371.292969 179.773438 Z M 371.292969 179.773438 "/></g><mask id="0022c87fc2"><g filter="url(#aa3eef88ef)"><rect x="0" width="810" y="0" height="809.999993" style="fill:#000000;fill-opacity:0.38;stroke:none;"/></g></mask></g></g></svg>