<svg xmlns="http://www.w3.org/2000/svg" xmlns:xlink="http://www.w3.org/1999/xlink" width="1080" zoomAndPan="magnify" viewBox="0 0 810 809.999993" height="1080" preserveAspectRatio="xMidYMid meet" version="1.2"><defs><filter x="0%" y="0%" width="100%" filterUnits="objectBoundingBox" id="dd2d23a67a" height="100%"><feColorMatrix values="0 0 0 0 1 0 0 0 0 1 0 0 0 0 1 0 0 0 1 0" type="matrix" in="SourceGraphic"/></filter><clipPath id="a2c26d5abb"><path d="M 9.828125 3.535156 L 678 3.535156 L 678 769 L 9.828125 769 Z M 9.828125 3.535156 "/></clipPath><clipPath id="b9c82b3963"><rect x="0" width="689" y="0" height="773"/></clipPath></defs><g id="6a25e178fb"><g mask="url(#f90441d529)" transform="matrix(1,0,0,1,51,7)"><g clip-path="url(#b9c82b3963)"><g clip-rule="nonzero" clip-path="url(#a2c26d5abb)"><path style=" stroke:none;fill-rule:nonzero;fill:#696969;fill-opacity:1;" d="M 409.046875 3.824219 L 390.933594 66.703125 L 328.0625 84.804688 L 390.933594 102.90625 L 409.046875 165.773438 L 427.160156 102.90625 L 490.050781 84.804688 L 427.160156 66.703125 Z M 633.734375 154.59375 L 623.84375 188.894531 L 589.476562 198.820312 L 623.84375 208.695312 L 633.734375 243.078125 L 643.597656 208.695312 L 677.96875 198.820312 L 643.597656 188.894531 Z M 160.445312 169.1875 L 160.445312 246.515625 L 211.652344 283.730469 L 262.882812 246.515625 L 262.882812 169.1875 Z M 482.984375 180.1875 L 473.074219 214.507812 L 438.703125 224.410156 L 473.074219 234.3125 L 482.984375 268.679688 L 492.875 234.3125 L 527.195312 224.410156 L 492.875 214.507812 Z M 281.898438 240.269531 L 281.898438 256.273438 L 244.679688 283.285156 C 283.128906 290.097656 316.691406 310.671875 339.867188 340.003906 C 357.164062 334.300781 375.3125 330.476562 394.066406 329.003906 C 368.597656 287.484375 328.859375 255.875 281.898438 240.269531 Z M 141.4375 243.96875 C 64.507812 274.375 9.816406 349.445312 9.816406 437 C 9.816406 551.292969 102.90625 644.5625 217.210938 644.5625 C 331.539062 644.5625 424.773438 551.292969 424.773438 437 C 424.773438 426.28125 423.785156 415.8125 422.132812 405.535156 C 504.152344 410.578125 568.683594 478.101562 568.683594 561.410156 C 568.683594 648.023438 498.964844 717.753906 412.328125 717.753906 C 362.386719 717.753906 318.152344 694.492188 289.582031 658.289062 C 272.289062 664.003906 254.199219 667.898438 235.410156 669.347656 C 271.964844 728.933594 337.570312 768.996094 412.328125 768.996094 C 526.65625 768.996094 619.699219 675.691406 619.699219 561.410156 C 619.699219 447.105469 526.65625 353.8125 412.328125 353.8125 C 298.015625 353.8125 204.765625 447.105469 204.765625 561.410156 C 204.765625 572.167969 205.898438 582.574219 207.539062 592.863281 C 125.472656 587.894531 60.867188 520.359375 60.867188 437 C 60.867188 362.84375 112.027344 301.183594 181.070312 284.9375 L 141.429688 256.273438 L 141.429688 243.96875 Z M 370.972656 410.699219 C 372.480469 419.273438 373.589844 427.992188 373.589844 437.011719 C 373.589844 509.289062 324.953125 569.660156 258.527344 587.714844 C 257.042969 579.1875 255.980469 570.417969 255.980469 561.410156 C 255.984375 489.113281 304.582031 428.726562 370.972656 410.699219 Z M 370.972656 410.699219 "/></g></g><mask id="f90441d529"><g filter="url(#dd2d23a67a)"><rect x="0" width="810" y="0" height="809.999993" style="fill:#000000;fill-opacity:0.38;stroke:none;"/></g></mask></g></g></svg>