<?xml version="1.0" encoding="UTF-8"?>
<svg id="Capa_2" data-name="Capa 2" xmlns="http://www.w3.org/2000/svg" viewBox="0 0 48 51.58">
  <defs>
    <style>
      .cls-1 {
        fill: #fff;
        fill-rule: evenodd;
      }
    </style>
  </defs>
  <g id="Capa_1-2" data-name="Capa 1">
    <g>
      <path class="cls-1" d="m20.64,16.16c.01-.45.02-.91.02-1.38h.59c0,.56,0,1.12,0,1.68l-.62-.29Z"/>
      <path class="cls-1" d="m9.96,44.84c-.66-.49-1.29-1.01-1.89-1.57.16-.04,11.62-2.81,12.54-25.87l.66.31c-.03,11.03-.95,22.27-11.31,27.13"/>
      <path class="cls-1" d="m21.73,16.68c0-.64,0-1.27,0-1.9h.64c0,.71,0,1.45,0,2.21l-.64-.3Z"/>
      <path class="cls-1" d="m21.61,23.52c.09-1.85.12-3.72.12-5.59l.64.31c0,1.58.02,3.23-.01,4.92l-.75.36Z"/>
      <path class="cls-1" d="m21.38,26.81c.07-.66.12-1.33.16-1.99l.8-.38c-.03.92-.07,1.85-.13,2.78l-.83-.4Z"/>
      <path class="cls-1" d="m18.5,37.73c1.52-2.94,2.33-6.33,2.76-9.91v.18s.86.42.86.42c-.23,2.84-.67,5.66-1.45,8.26l-2.17,1.05Z"/>
      <path class="cls-1" d="m13.32,46.93c-.91-.47-1.79-1-2.63-1.58,3.13-1.51,5.38-3.64,7-6.18l2.57-1.19c-1.33,3.71-3.48,6.89-6.93,8.95"/>
      <path class="cls-1" d="m22.8,17.19c0-.83-.02-1.64-.02-2.41h.54c0,.88.01,1.77.02,2.67l-.53-.25Z"/>
      <path class="cls-1" d="m22.8,22.95c.02-1.54.02-3.05,0-4.5l.52.25c0,1.32.02,2.65.03,3.99l-.56.27Z"/>
      <path class="cls-1" d="m22.63,27.41c.07-1.07.12-2.13.15-3.19l.6-.29c0,1.28.02,2.56,0,3.84l-.75-.36Z"/>
      <path class="cls-1" d="m21.25,36.4c.67-2.48,1.06-5.13,1.29-7.78l.82.4c-.05,2.22-.16,4.42-.41,6.56l-1.7.82Z"/>
      <path class="cls-1" d="m18.44,48.85c-1.44-.35-2.82-.84-4.15-1.44,3.29-2.33,5.33-5.78,6.58-9.71l1.92-.89c-.62,4.39-1.88,8.5-4.35,12.04"/>
      <path class="cls-1" d="m23.74,17.64v-.13c0-.92-.01-1.83-.02-2.73h.29c0,.9-.01,1.81-.02,2.73v.25s-.25-.12-.25-.12Z"/>
      <path class="cls-1" d="m23.76,22.49c0-1.25-.01-2.45-.02-3.6l.27.13c.01,1.07.02,2.18.03,3.33l-.28.14Z"/>
      <path class="cls-1" d="m23.74,27.95c.02-1.42.02-2.83.02-4.2l.29-.14c.01,1.47.03,2.98.06,4.52l-.38-.18Z"/>
      <path class="cls-1" d="m23.5,35.32c.12-2.02.19-4.08.22-6.12l.42.2c.05,1.83.11,3.68.22,5.5l-.87.42Z"/>
      <path class="cls-1" d="m27.72,51.29c-.91.11-2.74.29-3.72.29s-2.97-.19-3.95-.32c2.02-3.14,2.95-8.68,3.38-14.74l1.01-.47c.42,6.2,1.31,11.91,3.28,15.24"/>
      <path class="cls-1" d="m24.42,17.96c0-.15,0-.3,0-.45,0-.92.01-1.84.02-2.73h.54c0,1.09-.02,2.24-.03,3.43l-.52-.25Z"/>
      <path class="cls-1" d="m24.44,22.17c0-.98,0-1.97-.01-2.94l.49.23c0,.81,0,1.64,0,2.48l-.48.23Z"/>
      <path class="cls-1" d="m24.47,28.29c-.03-1.61-.03-3.24-.02-4.87l.5-.24c.03,1.8.11,3.63.27,5.46l-.74-.36Z"/>
      <path class="cls-1" d="m24.78,34.7c-.16-1.68-.24-3.4-.29-5.14l.84.4c.15,1.41.35,2.8.63,4.16l-1.17.57Z"/>
      <path class="cls-1" d="m33.55,47.48c-1.34.6-2.75,1.08-4.21,1.42-2.66-3.81-3.88-8.29-4.43-13.07l1.29-.6c1.15,4.99,3.32,9.44,7.35,12.24"/>
      <path class="cls-1" d="m25.36,18.41c0-1.26.02-2.48.01-3.63h.64c0,1.3-.01,2.62,0,3.94l-.65-.31Z"/>
      <path class="cls-1" d="m25.36,21.73c0-.7,0-1.39,0-2.07l.67.32c0,.47.02.95.03,1.42l-.69.33Z"/>
      <path class="cls-1" d="m25.66,28.87c-.18-1.96-.26-3.95-.29-5.89l.72-.34c.09,2.29.26,4.55.6,6.72l-1.03-.5Z"/>
      <path class="cls-1" d="m26.38,33.93c-.25-1.22-.44-2.47-.59-3.74l1.13.55c.17.9.38,1.77.62,2.63l-1.17.56Z"/>
      <path class="cls-1" d="m37.21,45.43c-.85.58-1.74,1.11-2.67,1.58-4.41-2.58-6.72-6.97-7.92-11.96l1.25-.58c1.54,4.68,4.32,8.6,9.33,10.97"/>
      <path class="cls-1" d="m24,0c13.25,0,24,11.08,24,24.76,0,7.42-3.16,14.07-8.17,18.61h0c-.6.55-1.23,1.06-1.88,1.54-11.44-5.25-11.52-18.17-11.46-30.13h0s0-.09,0-.09h0s0,0,0,0v-.2h-5.82c0-.15,0-.3,0-.45h2.09s-.98-.71-1.73-1.07c-.75-.36-1.81-.67-1.81-2.37s1.7-1.7,1.7-1.7c0,0,1.62-.02,2.18,2.04.55,2.05-.34,3.11-.34,3.11h4.5s-1.88,22.02,11.22,28.71c5.01-4.29,8.19-10.76,8.19-17.99,0-10.9-7.23-20.05-17.01-22.64.03.13.04.27.04.42,0,1.7-1.06,2.01-1.81,2.37-.75.36-1.73,1.07-1.73,1.07,0,0-.89-1.06-.34-3.11.16-.61.42-1.04.71-1.34-.83-.1-1.67-.15-2.53-.15C11.48,1.38,1.34,11.85,1.34,24.76c0,6.97,2.96,13.23,7.66,17.52l-1.26.69C2.98,38.44,0,31.96,0,24.76,0,11.08,10.74,0,24,0"/>
    </g>
  </g>
</svg>