<?xml version="1.0" encoding="UTF-8"?>
<svg id="Capa_2" data-name="Capa 2" xmlns="http://www.w3.org/2000/svg" viewBox="0 0 128 128">
  <defs>
    <style>
      .cls-1 {
        fill: #7c67c7;
      }

      .cls-2 {
        fill: #fff;
      }

      .cls-3 {
        fill: #eb0c6f;
      }

      .cls-4 {
        fill: #f93;
      }

      .cls-5 {
        fill: #5fc18c;
      }

      .cls-6 {
        fill: #111d52;
      }

      .cls-7 {
        fill: #facc1b;
      }

      .cls-8 {
        fill: #2993ff;
      }
    </style>
  </defs>
  <g id="Capa_1-2" data-name="Capa 1">
    <g>
      <circle class="cls-6" cx="64" cy="64" r="64"/>
      <path class="cls-1" d="m112.3,94.45h0c-.14-.6-.51-1.1-1.04-1.4l-3.71-2.14c-.28-.16-.64-.04-.77.26l-.2.47c-.53,1.23-1.4,2.23-2.57,2.95-1.13.69-2.44,1.06-3.8,1.06s-2.65-.35-3.8-1.02l-.06-.04c-2.39-1.38-3.83-3.91-3.76-6.6.04-1.38.46-2.63,1.26-3.7l.3-.41c.19-.26.12-.63-.16-.79l-4.4-2.54c-.34-.19-.72-.3-1.1-.3-.7,0-1.34.32-1.75.87-4.64,6.15-11.67,10.21-19.28,11.13-1.09.13-1.92,1.06-1.92,2.17v8.86l-.04.07c-.2.33-.53.55-.88.58-.22.02-.44-.03-.64-.14-1.09-.62-2.17-1.18-3.36-1.18-.63,0-1.23.16-1.82.48-1.49.81-2.45,2.47-2.45,4.23v.07c0,1.76.96,3.42,2.45,4.23.59.32,1.19.48,1.82.48,1.18,0,2.26-.56,3.36-1.18.2-.11.41-.16.64-.14.35.03.68.25.88.58l.04.07v8.04c0,1.21.98,2.19,2.18,2.19.05,0,.1,0,.15,0,4.52-.3,8.99-1.13,13.29-2.46,4.19-1.3,8.24-3.09,12.04-5.32,3.74-2.19,7.24-4.82,10.41-7.8,3.16-2.97,5.98-6.31,8.4-9.9.34-.5.45-1.11.31-1.7Z"/>
      <path class="cls-8" d="m120.22,50.7c-.99-4.21-2.47-8.32-4.38-12.2-.37-.75-1.11-1.21-1.95-1.21-.38,0-.76.1-1.09.29l-3.72,2.15c-.29.17-.36.54-.17.81l.3.4c.8,1.08,1.23,2.32,1.26,3.7.07,2.69-1.37,5.22-3.76,6.6l-.06.03c-1.15.67-2.47,1.02-3.8,1.02s-2.67-.37-3.8-1.06c-1.18-.72-2.04-1.71-2.57-2.95l-.21-.49c-.12-.29-.47-.4-.75-.25l-4.3,2.48c-1.02.59-1.45,1.86-1,2.94,1.47,3.49,2.21,7.2,2.21,11.02s-.76,7.62-2.27,11.16c-.43,1-.03,2.17.92,2.72l7.67,4.43c.31.6.1,1.35-.48,1.69-1.58.93-3,1.94-3.05,4.04-.04,1.69.91,3.35,2.44,4.23l.06.03c.75.43,1.61.66,2.47.66s1.7-.23,2.41-.67c1.79-1.1,1.96-2.83,1.97-4.67,0-.68.55-1.23,1.22-1.26l6.98,4.03c.33.19.71.29,1.09.29.83,0,1.58-.46,1.95-1.21,1.91-3.89,3.39-7.99,4.38-12.2,1.02-4.33,1.54-8.81,1.54-13.3s-.52-8.97-1.54-13.3Z"/>
      <path class="cls-3" d="m57.52,100.74c.98-.53,2.02-.8,3.09-.8.25,0,.5.02.75.05l.5.06c.33.04.62-.22.62-.55v-5.1c0-1.1-.82-2.03-1.91-2.16-7.62-.92-14.66-4.98-19.3-11.14-.42-.55-1.05-.87-1.74-.87-.38,0-.76.1-1.09.29l-7.52,4.34c-.12.07-.27.09-.41.06-.56-.14-.97-.64-.98-1.23-.02-1.83-.18-3.57-1.97-4.67-.71-.44-1.55-.67-2.41-.67s-1.72.23-2.47.66l-.06.04c-1.52.88-2.48,2.54-2.44,4.23.05,2.1,1.47,3.11,3.05,4.04.52.31.74.94.56,1.5-.04.12-.13.22-.24.29l-6.65,3.84c-.57.33-.97.87-1.12,1.51-.15.64-.03,1.29.34,1.84,2.42,3.58,5.24,6.89,8.4,9.85,3.16,2.96,6.66,5.57,10.39,7.75,3.79,2.21,7.83,3.99,12.01,5.28,4.29,1.33,8.75,2.15,13.25,2.45.05,0,.1,0,.14,0,1.2,0,2.17-.98,2.17-2.18v-4.28c0-.33-.29-.59-.62-.55l-.5.06c-.25.03-.51.05-.75.05-1.07,0-2.11-.27-3.09-.8-2.36-1.28-3.83-3.8-3.83-6.56v-.07c0-2.76,1.47-5.27,3.83-6.56Z"/>
      <path class="cls-4" d="m35.55,64c0-3.81.74-7.52,2.21-11.01.46-1.09.03-2.36-1-2.96l-7.37-4.26c-.11-.06-.2-.16-.24-.28-.18-.56.04-1.19.56-1.5,1.58-.93,3-1.94,3.05-4.04.04-1.69-.91-3.35-2.44-4.23l-.06-.03c-.75-.43-1.61-.66-2.47-.66s-1.7.23-2.41.67c-1.79,1.1-1.96,2.83-1.97,4.67,0,.59-.43,1.1-.98,1.23-.14.03-.28.01-.4-.06l-6.82-3.93c-.33-.19-.71-.29-1.09-.29-.84,0-1.59.46-1.96,1.21-1.91,3.88-3.39,7.99-4.38,12.2-1.02,4.33-1.54,8.8-1.54,13.29s.52,8.96,1.54,13.29c.99,4.21,2.46,8.31,4.38,12.2.37.75,1.12,1.21,1.96,1.21.38,0,.76-.1,1.09-.29l3.72-2.15c.28-.16.36-.53.16-.8l-.3-.41c-.8-1.08-1.23-2.32-1.26-3.7-.07-2.69,1.37-5.22,3.77-6.6l.06-.03c1.15-.66,2.47-1.02,3.8-1.02s2.67.37,3.8,1.06c1.18.72,2.04,1.71,2.57,2.95l.2.47c.13.3.49.42.77.26l4.27-2.47c1.03-.59,1.46-1.86,1-2.96-1.47-3.49-2.21-7.19-2.21-11.01Z"/>
      <path class="cls-7" d="m69.21,16.4c-.59-.32-1.19-.48-1.82-.48-1.18,0-2.26.56-3.36,1.18-.2.11-.41.16-.64.14-.35-.03-.68-.25-.88-.58l-.04-.07v-8.03c0-1.21-.98-2.2-2.19-2.2-.05,0-.1,0-.15,0-4.52.3-8.99,1.13-13.29,2.46-4.19,1.3-8.24,3.09-12.03,5.31-3.74,2.19-7.24,4.82-10.4,7.79-3.16,2.97-5.98,6.3-8.4,9.9-.34.51-.45,1.11-.31,1.71.14.6.51,1.1,1.04,1.41l3.85,2.22c.21.12.47.03.56-.19l.27-.62c.53-1.23,1.4-2.23,2.57-2.95,1.13-.69,2.44-1.06,3.8-1.06s2.65.35,3.8,1.02l.06.04c2.39,1.38,3.83,3.91,3.76,6.6-.04,1.38-.46,2.63-1.26,3.7l-.39.52c-.15.2-.09.48.12.61l4.47,2.58c.36.21.77.34,1.18.33.69,0,1.32-.33,1.73-.87,4.64-6.15,11.66-10.21,19.28-11.13,1.1-.13,1.93-1.07,1.93-2.18v-8.85l.04-.07c.2-.33.53-.55.88-.58.22-.02.44.03.64.14,1.09.62,2.17,1.18,3.36,1.18.63,0,1.23-.16,1.82-.48,1.49-.81,2.45-2.47,2.45-4.23v-.07c0-1.76-.96-3.42-2.45-4.23Z"/>
      <path class="cls-5" d="m111.99,31.84c-2.41-3.58-5.22-6.9-8.36-9.87-3.15-2.97-6.63-5.59-10.35-7.78-3.78-2.22-7.8-4.01-11.98-5.32-4.28-1.34-8.73-2.18-13.23-2.49-.06,0-.11,0-.17,0-1.31,0-2.37,1.06-2.37,2.37v4.06c0,.34.3.6.63.56l.48-.06c.25-.03.51-.05.75-.05,1.07,0,2.11.27,3.09.8,2.36,1.28,3.83,3.8,3.83,6.56v.07c0,2.76-1.47,5.27-3.83,6.56-.98.53-2.02.8-3.09.8-.25,0-.5-.02-.75-.05l-.49-.06c-.33-.04-.62.22-.62.55v4.92c0,1.19.89,2.2,2.08,2.35,7.49.95,14.43,4.95,19.04,10.99.46.6,1.15.94,1.89.94.41,0,.82-.11,1.18-.32l7.53-4.35c.67.03,1.22.59,1.22,1.26.02,1.83.18,3.57,1.97,4.67.71.44,1.55.67,2.41.67s1.72-.23,2.47-.66l.06-.04c1.52-.88,2.48-2.54,2.44-4.23-.05-2.1-1.47-3.11-3.05-4.04-.58-.34-.79-1.1-.48-1.69l6.97-4.02c.53-.31.9-.81,1.04-1.4.14-.59.03-1.2-.31-1.71Z"/>
      <path class="cls-2" d="m47.84,96.27c-1.29,0-2.32-.05-3.15-.15-.88-.11-1.57-.25-2.12-.45-.75-.27-1.3-.68-1.64-1.21-.25-.41-.51-1.08-.28-1.99l10.93-54.86c.36-1.74,1.12-3.04,2.26-3.87,1.09-.79,2.33-1.19,3.66-1.19h28.34c1.61,0,2.19,1,2.36,1.43.21.53.32,1.18.32,2,0,.15,0,.44-.08,1.15-.05.52-.14,1.11-.25,1.74-.12.63-.26,1.27-.41,1.93-.18.72-.4,1.39-.66,2.01-.3.69-.66,1.28-1.08,1.74-.59.65-1.34.99-2.16.99h-18.58l-2.68,13.34h16.82c.97,0,1.78.47,2.22,1.28.3.55.46,1.25.46,2.06,0,.29-.03.68-.11,1.24-.07.52-.16,1.08-.27,1.68-.11.6-.26,1.25-.44,1.93-.19.72-.43,1.38-.69,1.96-.29.65-.65,1.21-1.07,1.66-.59.65-1.34.99-2.16.99h-17.27l-4.25,21.4c-.12.63-.41,1.19-.87,1.65-.43.43-1,.75-1.76.97-.6.18-1.34.32-2.24.43-.87.1-1.9.15-3.16.15Z"/>
      <path class="cls-6" d="m85.86,34.02c.53,0,.87.17,1.01.51.14.34.21.83.21,1.45,0,.19-.02.52-.07,1.01-.05.48-.12,1.02-.23,1.61-.11.59-.24,1.21-.4,1.85-.16.64-.35,1.23-.58,1.78-.23.55-.51.99-.82,1.33-.31.34-.67.51-1.08.51h-19.78l-3.27,16.27h18.61c.44,0,.75.17.94.52.19.34.28.79.28,1.36,0,.22-.03.57-.09,1.05-.06.48-.15,1.01-.26,1.59-.11.58-.25,1.18-.42,1.82-.17.64-.37,1.22-.61,1.73-.23.51-.51.94-.82,1.29-.31.34-.67.51-1.08.51h-18.47l-4.49,22.59c-.06.34-.22.64-.47.89-.25.25-.63.45-1.15.61-.51.16-1.18.28-1.99.37-.81.09-1.81.14-2.99.14s-2.21-.05-2.97-.14c-.76-.09-1.36-.22-1.8-.37-.44-.16-.73-.36-.89-.61-.16-.25-.19-.54-.09-.89l10.94-54.9c.28-1.37.84-2.36,1.68-2.97.84-.61,1.78-.91,2.81-.91h28.34m0-2.93h-28.34c-1.65,0-3.17.49-4.52,1.47-1.45,1.05-2.41,2.65-2.84,4.76,0,0,0,.01,0,.02l-10.93,54.83c-.26,1.09-.1,2.18.47,3.08h0c.51.82,1.31,1.44,2.39,1.82h0c.65.23,1.45.41,2.44.53.88.11,1.97.16,3.32.16s2.4-.05,3.33-.16c.99-.11,1.81-.27,2.5-.48.99-.3,1.77-.74,2.37-1.34.66-.66,1.1-1.49,1.27-2.4l4.02-20.21h16.07c1.23,0,2.38-.52,3.25-1.48.52-.57.96-1.26,1.32-2.04.3-.65.56-1.39.77-2.18.19-.72.35-1.4.47-2.04.12-.62.21-1.21.28-1.76.08-.63.12-1.08.12-1.43,0-1.06-.21-1.99-.64-2.76-.69-1.28-2.01-2.04-3.51-2.04h-15.03l2.09-10.41h17.38c1.23,0,2.38-.52,3.25-1.48.53-.58.98-1.3,1.34-2.15.3-.69.54-1.44.74-2.24.17-.68.31-1.36.43-2.01.12-.67.21-1.3.27-1.86.06-.6.08-.99.08-1.29,0-1.02-.14-1.85-.43-2.56-.6-1.46-1.99-2.34-3.72-2.34h0Z"/>
    </g>
  </g>
</svg>